<svg width="115" height="59" viewBox="0 0 115 59" fill="none" xmlns="http://www.w3.org/2000/svg">
<mask id="mask0_60_86" style="mask-type:alpha" maskUnits="userSpaceOnUse" x="0" y="0" width="115" height="59">
<path d="M49.0676 27.8342C48.9377 28.0593 48.7941 28.2196 48.6335 28.3151C48.4728 28.4105 48.2712 28.4583 48.0319 28.4583C47.7585 28.4583 47.4611 28.373 47.1398 28.2059C46.8185 28.0388 46.4425 27.8513 46.0084 27.6398C45.5743 27.4318 45.065 27.2443 44.4771 27.0737C43.8926 26.9066 43.2021 26.8214 42.416 26.8214C41.7734 26.8214 41.1923 26.8964 40.6693 27.0499C40.1464 27.2033 39.7054 27.4182 39.3431 27.6978C38.9808 27.9774 38.7039 28.3082 38.5125 28.6834C38.3211 29.0619 38.2254 29.4643 38.2254 29.8974C38.2254 30.4737 38.3997 30.9546 38.7552 31.3399C39.1073 31.7253 39.5721 32.0595 40.1532 32.3391C40.7309 32.6187 41.3906 32.8711 42.1289 33.0962C42.8672 33.3212 43.6226 33.5634 44.3951 33.8191C45.1675 34.0749 45.9229 34.3716 46.6612 34.7092C47.3996 35.0468 48.0592 35.4594 48.6369 35.9471C49.2146 36.4382 49.6828 37.0281 50.0349 37.7272C50.387 38.4229 50.5647 39.2686 50.5647 40.2644C50.5647 41.4171 50.3562 42.4845 49.9392 43.4632C49.5222 44.4419 48.9103 45.2911 48.1071 46.014C47.3038 46.737 46.3023 47.2963 45.106 47.6987C43.9097 48.1011 42.539 48.3023 40.9975 48.3023C40.1464 48.3023 39.3226 48.2273 38.5262 48.0738C37.7298 47.9238 36.9744 47.7157 36.26 47.4497C35.5456 47.1871 34.8791 46.87 34.2604 46.4983C33.6418 46.1334 33.0914 45.731 32.6095 45.2979L33.8161 43.3234C33.9596 43.0847 34.1408 42.8937 34.3596 42.7607C34.5749 42.6243 34.8449 42.5561 35.1662 42.5561C35.5046 42.5561 35.8396 42.6652 36.1677 42.8801C36.4959 43.0949 36.8821 43.3336 37.3265 43.5894C37.7674 43.8451 38.3006 44.0804 38.9295 44.2987C39.5585 44.5135 40.3378 44.6227 41.2675 44.6227C42.04 44.6227 42.7065 44.5306 43.2671 44.3464C43.8311 44.1623 44.2959 43.9099 44.6651 43.5894C45.0342 43.2688 45.3077 42.9039 45.4854 42.4947C45.6632 42.0855 45.7486 41.649 45.7486 41.1852C45.7486 40.5611 45.5709 40.0462 45.2188 39.6472C44.8668 39.2482 44.3951 38.9003 43.8106 38.6139C43.2261 38.324 42.5561 38.0683 41.811 37.8432C41.0624 37.6181 40.3036 37.3794 39.5311 37.1236C38.7586 36.8679 37.9998 36.5712 37.2547 36.2336C36.5061 35.8959 35.843 35.4663 35.2551 34.9445C34.6672 34.4227 34.1989 33.7919 33.8434 33.045C33.4914 32.2982 33.3136 31.3911 33.3136 30.3134C33.3136 29.3347 33.5119 28.4037 33.905 27.5239C34.298 26.6441 34.8757 25.8665 35.6413 25.1913C36.4036 24.5195 37.3435 23.9841 38.4613 23.5919C39.579 23.1997 40.8676 23.002 42.3305 23.002C43.9849 23.002 45.4888 23.2645 46.839 23.7965C48.1891 24.3251 49.3239 25.0481 50.2366 25.962L49.0676 27.8342Z" fill="#5A5377"/>
<path d="M51.4294 23.3873H55.5277C55.9311 23.3873 56.2626 23.4896 56.5292 23.6874C56.7924 23.8886 56.9667 24.1239 57.0454 24.3968L61.1436 38.6821C61.3043 39.3369 61.4444 39.9746 61.5641 40.5952C61.6837 41.2125 61.7931 41.8263 61.8888 42.4334C62.0494 41.8229 62.2169 41.2125 62.3844 40.5952C62.5553 39.978 62.7433 39.3403 62.9518 38.6821L67.5662 24.3251C67.6483 24.0353 67.8123 23.8 68.0618 23.6158C68.3114 23.4317 68.6122 23.3396 68.9642 23.3396H71.2304C71.5996 23.3396 71.914 23.4317 72.1704 23.6158C72.4267 23.8 72.5977 24.0387 72.6763 24.3251L77.1608 38.6821C77.3351 39.3369 77.5129 39.9814 77.6906 40.6021C77.8649 41.2295 78.029 41.8468 78.1725 42.4538C78.364 41.2364 78.6374 39.978 78.9929 38.6787L83.163 24.3934C83.2621 24.1035 83.4364 23.8648 83.6928 23.6738C83.9491 23.4794 84.2636 23.3839 84.6327 23.3839H88.5362L80.6541 47.9136H76.5319C76.0499 47.9136 75.7115 47.5998 75.5201 46.9757L70.6288 31.7048C70.4989 31.2717 70.3827 30.8421 70.2768 30.4192C70.1742 29.9963 70.0819 29.5666 69.9999 29.1335C69.8222 29.9997 69.6068 30.8659 69.3505 31.7287L64.3772 46.9757C64.1994 47.6032 63.82 47.9136 63.2389 47.9136H59.3081L51.4294 23.3873Z" fill="#5A5377"/>
<path d="M100.759 23.002C102.27 23.002 103.668 23.2475 104.953 23.7351C106.238 24.2228 107.349 24.939 108.279 25.887C109.212 26.835 109.94 27.9911 110.46 29.362C110.983 30.7329 111.243 32.2914 111.243 34.0374C111.243 34.8388 111.154 35.3776 110.979 35.647C110.805 35.9198 110.48 36.0562 110.015 36.0562H94.2273C94.2923 37.451 94.5076 38.6548 94.8768 39.6745C95.2459 40.6941 95.7416 41.5398 96.3602 42.2117C96.9789 42.8835 97.7172 43.3848 98.5786 43.7156C99.4399 44.0429 100.4 44.2066 101.46 44.2066C102.472 44.2066 103.347 44.0907 104.089 43.8588C104.827 43.6269 105.469 43.3711 106.016 43.0881C106.563 42.8084 107.028 42.5527 107.414 42.3174C107.801 42.0855 108.153 41.9695 108.474 41.9695C108.891 41.9695 109.212 42.1298 109.438 42.4504L110.908 44.3499C110.296 45.0694 109.605 45.6798 108.836 46.1777C108.064 46.6756 107.243 47.0814 106.375 47.3918C105.507 47.7055 104.615 47.9272 103.699 48.0636C102.783 48.2 101.891 48.2682 101.022 48.2682C99.3203 48.2682 97.7411 47.9817 96.2884 47.4156C94.8323 46.8495 93.5745 46.0072 92.5046 44.9023C91.4348 43.794 90.6008 42.4265 89.9992 40.7896C89.3976 39.1561 89.0968 37.2703 89.0968 35.1389C89.0968 33.4406 89.3634 31.8514 89.9035 30.3782C90.4435 28.9016 91.2126 27.6194 92.2175 26.5315C93.2224 25.4403 94.4427 24.5809 95.8817 23.9466C97.3173 23.3191 98.9409 23.002 100.759 23.002ZM100.855 26.7532C98.9751 26.7532 97.495 27.2886 96.4183 28.3628C95.3416 29.437 94.658 30.9443 94.3675 32.8813H106.591C106.591 32.0185 106.464 31.2103 106.215 30.4669C105.965 29.7201 105.599 29.0721 105.117 28.5197C104.635 27.9638 104.037 27.5341 103.323 27.2204C102.612 26.9101 101.788 26.7532 100.855 26.7532Z" fill="#5A5377"/>
<path d="M9.38701 6.90565C9.65704 7.38308 9.95441 7.85028 10.1937 8.34135C10.7201 9.40874 10.7987 10.5205 10.4193 11.6527C10.3338 11.905 10.2347 12.1471 10.1253 12.3824L13.8955 14.3808C15.2422 12.4779 17.4571 11.223 19.9728 11.2127C22.3826 11.2059 24.5257 12.3381 25.8964 14.0978L29.6904 11.9971C29.6289 11.8505 29.564 11.7038 29.5127 11.5469C29.2187 10.6808 29.2017 9.80433 29.4717 8.9245C29.6631 8.29702 29.9844 7.72751 30.3194 7.16824C30.5826 6.72832 30.8423 6.28499 31.0816 5.83144C31.2525 5.51429 31.3448 5.16304 31.3277 4.79473C31.3038 4.31389 31.0816 3.91831 30.7535 3.59093C29.9844 2.80999 29.0444 2.29164 28.0293 1.9097C27.7797 1.81421 27.5131 1.77329 27.2499 1.7085C27.103 1.7085 26.9491 1.7085 26.8022 1.71191C26.6894 1.73919 26.5731 1.76647 26.4604 1.80398C26.0809 1.93357 25.787 2.18593 25.5682 2.50989C25.3255 2.86797 25.1068 3.24309 24.8983 3.62162C24.5975 4.16385 24.3104 4.71289 23.9344 5.21078C23.1824 6.20656 22.1775 6.76924 20.947 6.94658C20.0788 7.06934 19.2208 7.04888 18.3697 6.83745C17.2794 6.56804 16.4249 5.94738 15.8096 5.02322C15.461 4.49805 15.1704 3.93536 14.8423 3.39314C14.644 3.06576 14.4458 2.73497 14.2099 2.43146C13.9296 2.06657 13.5537 1.83126 13.082 1.7767C13.0717 1.77329 13.058 1.76647 13.0478 1.75965C12.9247 1.75965 12.7983 1.75965 12.6752 1.76306C12.5624 1.78352 12.4496 1.80398 12.3368 1.82785C11.7045 1.96767 11.1302 2.25413 10.5765 2.5781C10.0399 2.88843 9.53057 3.23286 9.11015 3.68983C8.55984 4.28661 8.39577 4.96524 8.73758 5.71208C8.92557 6.1213 9.16484 6.51007 9.38701 6.90565Z" fill="#DBC554"/>
<path d="M38.4442 16.7749C38.2186 16.0417 37.7572 15.5506 36.9744 15.4381C36.5984 15.3835 36.2156 15.3767 35.8362 15.3767C35.0842 15.3767 34.3288 15.4415 33.5768 15.3358C32.6608 15.2062 31.8507 14.8481 31.1773 14.2104C31.0304 14.0706 30.8936 13.924 30.7637 13.7705L26.9252 15.8951C27.2705 16.7442 27.4619 17.6684 27.4619 18.6403C27.4687 22.2722 24.8846 25.2936 21.4495 25.9722V30.4601C22.5262 30.6988 23.4149 31.2649 24.0985 32.1959C24.5018 32.7483 24.8026 33.3622 25.1478 33.9521C25.3461 34.2897 25.5614 34.6273 25.8041 34.9411C26.0912 35.3094 26.4809 35.531 26.9594 35.572C27.2705 35.5992 27.5713 35.5583 27.8652 35.4628C28.8394 35.1593 29.7041 34.6512 30.4903 34.0135C30.6817 33.8566 30.8526 33.6759 31.0098 33.4815C31.4952 32.8847 31.5362 32.2231 31.2149 31.5411C31.0304 31.1523 30.8013 30.7874 30.5894 30.4157C30.3262 29.9485 30.0357 29.495 29.7964 29.0141C29.2769 27.9604 29.1846 26.8623 29.5469 25.7369C29.8238 24.8776 30.2613 24.1034 30.8492 23.4146C31.461 22.6984 32.2199 22.2108 33.1393 21.9925C33.8469 21.822 34.5681 21.8254 35.2893 21.8391C35.7815 21.8493 36.2771 21.8493 36.7659 21.8152C37.2649 21.7811 37.7196 21.6072 38.0511 21.2013C38.2562 20.9524 38.3861 20.6625 38.4715 20.3556C38.6664 19.6429 38.6835 18.9165 38.6527 18.1867C38.6424 17.7127 38.5877 17.2353 38.4442 16.7749Z" fill="#5A5377"/>
<path d="M19.3746 26.0812C15.5532 25.7674 12.5316 22.5857 12.5214 18.6912C12.518 17.825 12.6718 16.9964 12.9418 16.2222L8.95632 14.1113C8.94948 14.1181 8.94264 14.1284 8.93923 14.1352C8.41968 14.6774 7.801 15.0662 7.07637 15.281C6.51238 15.4481 5.93131 15.5027 5.34682 15.5027C4.7384 15.5061 4.12656 15.4822 3.52156 15.4925C3.27204 15.4959 3.01568 15.5402 2.773 15.605C2.10647 15.7789 1.73732 16.2495 1.54249 16.8838C1.34766 17.5181 1.31689 18.1729 1.32373 18.8345C1.33057 19.4313 1.375 20.0246 1.55958 20.5975C1.78859 21.3205 2.25687 21.7945 3.02594 21.9071C3.38142 21.9582 3.74374 21.965 4.10263 21.965C4.88196 21.9616 5.65786 21.8934 6.43719 22.006C7.27462 22.1287 8.03343 22.4391 8.67262 23.0017C9.51346 23.7418 10.0809 24.6625 10.4534 25.7094C10.7884 26.6473 10.8021 27.5919 10.4842 28.5399C10.2962 29.0958 10.0159 29.6039 9.71513 30.1052C9.4451 30.5588 9.17507 31.0157 8.92214 31.4795C8.7649 31.766 8.67262 32.0831 8.66236 32.4139C8.64527 32.9425 8.8777 33.3654 9.22293 33.7371C9.64677 34.194 10.1629 34.5317 10.6995 34.8386C11.2909 35.1762 11.8993 35.4797 12.5795 35.5956C13.246 35.7116 13.8237 35.5411 14.2646 35.0159C14.4594 34.7874 14.6269 34.5351 14.7807 34.2759C15.1294 33.6859 15.437 33.0789 15.7959 32.4992C16.418 31.5034 17.2828 30.8111 18.4381 30.5144C18.7491 30.436 19.0636 30.3848 19.3746 30.3541V26.0812Z" fill="#A9A8A9"/>
<path d="M35.3166 52.8445C35.2927 52.8888 35.2654 52.9195 35.238 52.9366C35.2107 52.957 35.1765 52.9673 35.1355 52.9673C35.091 52.9673 35.0466 52.9536 34.9953 52.9195C34.9441 52.8888 34.8859 52.8513 34.8142 52.8138C34.7424 52.7763 34.6603 52.7388 34.5681 52.7081C34.4758 52.6774 34.363 52.6603 34.2365 52.6603C34.1203 52.6603 34.0177 52.674 33.9323 52.7013C33.8468 52.7285 33.7716 52.7661 33.7135 52.8172C33.6554 52.8684 33.611 52.9263 33.5837 52.9945C33.5563 53.0627 33.5392 53.1412 33.5392 53.223C33.5392 53.3253 33.57 53.414 33.6281 53.4856C33.6862 53.5572 33.7648 53.6152 33.8605 53.6663C33.9562 53.7141 34.069 53.7618 34.1921 53.7993C34.3151 53.8369 34.4416 53.8812 34.5715 53.9255C34.7014 53.9699 34.8278 54.021 34.9543 54.079C35.0774 54.137 35.1867 54.212 35.2859 54.3006C35.3816 54.3893 35.4602 54.4984 35.5183 54.628C35.5764 54.7576 35.6072 54.9179 35.6072 55.102C35.6072 55.3032 35.573 55.4908 35.5046 55.6681C35.4363 55.8455 35.3337 55.9989 35.2004 56.1285C35.0671 56.2581 34.903 56.3638 34.7116 56.4388C34.5202 56.5139 34.3015 56.5514 34.0519 56.5514C33.9118 56.5514 33.7682 56.5377 33.6315 56.5105C33.4948 56.4832 33.3615 56.4423 33.235 56.3911C33.1085 56.34 32.9889 56.2786 32.8761 56.207C32.7633 56.1353 32.6676 56.0535 32.5787 55.9682L32.8248 55.5692C32.8453 55.542 32.8727 55.5181 32.9035 55.4976C32.9376 55.4772 32.9718 55.4669 33.0094 55.4669C33.0607 55.4669 33.1154 55.4874 33.1769 55.5283C33.2384 55.5727 33.3068 55.617 33.3922 55.6681C33.4743 55.7227 33.57 55.767 33.6828 55.808C33.7922 55.8523 33.9255 55.8728 34.0793 55.8728C34.3151 55.8728 34.4997 55.8148 34.6296 55.7022C34.7595 55.5897 34.8244 55.4294 34.8244 55.218C34.8244 55.102 34.7937 55.0066 34.7355 54.9315C34.6774 54.8565 34.5988 54.7951 34.5031 54.744C34.4074 54.6928 34.2946 54.6519 34.1716 54.6178C34.0485 54.5837 33.922 54.5462 33.7956 54.5019C33.6691 54.4609 33.5426 54.4098 33.4196 54.3552C33.2965 54.2972 33.1872 54.2222 33.088 54.1301C32.9889 54.0381 32.9137 53.9221 32.8556 53.7823C32.7975 53.6425 32.7667 53.472 32.7667 53.2708C32.7667 53.1071 32.8009 52.9502 32.8659 52.7933C32.9308 52.6399 33.0265 52.5035 33.1496 52.3841C33.2726 52.2648 33.4264 52.1693 33.6076 52.0977C33.7887 52.026 33.9972 51.9885 34.2331 51.9885C34.4963 51.9885 34.739 52.0294 34.9646 52.1113C35.1867 52.1931 35.3747 52.3091 35.5354 52.4557L35.3166 52.8445Z" fill="#231F20"/>
<path d="M37.6136 53.2776C37.8494 53.2776 38.0613 53.3151 38.2562 53.3901C38.4476 53.4686 38.6151 53.5743 38.7518 53.7141C38.8885 53.8539 38.9945 54.0244 39.0697 54.2256C39.1449 54.4268 39.1825 54.6519 39.1825 54.9009C39.1825 55.1532 39.1449 55.3783 39.0697 55.5795C38.9945 55.7807 38.8885 55.9512 38.7518 56.0944C38.6151 56.2377 38.451 56.3468 38.2562 56.4218C38.0648 56.4968 37.8494 56.5343 37.6136 56.5343C37.3777 56.5343 37.1624 56.4968 36.9641 56.4218C36.7693 56.3468 36.6052 56.2377 36.4685 56.0944C36.3318 55.9512 36.2258 55.7807 36.1506 55.5795C36.0754 55.3783 36.0378 55.1498 36.0378 54.9009C36.0378 54.6519 36.0754 54.4268 36.1506 54.2256C36.2258 54.0244 36.3318 53.8539 36.4685 53.7141C36.6052 53.5743 36.7727 53.4686 36.9641 53.3901C37.1624 53.3185 37.3777 53.2776 37.6136 53.2776ZM37.6136 55.9546C37.8768 55.9546 38.0716 55.8659 38.2015 55.6886C38.328 55.5113 38.3895 55.2521 38.3895 54.9111C38.3895 54.5701 38.3245 54.3109 38.2015 54.1301C38.075 53.9494 37.8802 53.8607 37.6136 53.8607C37.3436 53.8607 37.1453 53.9494 37.0188 54.1301C36.8889 54.3109 36.8274 54.5701 36.8274 54.9111C36.8274 55.2487 36.8924 55.5079 37.0188 55.6886C37.1453 55.8659 37.347 55.9546 37.6136 55.9546Z" fill="#231F20"/>
<path d="M42.0366 53.9971C42.0127 54.0244 41.9921 54.0483 41.9716 54.0653C41.9477 54.0824 41.9169 54.0892 41.8759 54.0892C41.8349 54.0892 41.8007 54.079 41.7597 54.0517C41.7221 54.0278 41.6777 54.0005 41.6264 53.9733C41.5751 53.9426 41.5136 53.9153 41.4418 53.8914C41.3701 53.8675 41.2812 53.8573 41.1786 53.8573C41.0453 53.8573 40.9291 53.8812 40.8266 53.9323C40.724 53.9801 40.642 54.0483 40.5736 54.1404C40.5053 54.2324 40.4574 54.3416 40.4232 54.4677C40.3891 54.5973 40.372 54.7406 40.372 54.9042C40.372 55.0713 40.3891 55.2214 40.4267 55.3544C40.4643 55.484 40.5155 55.5965 40.5839 55.6852C40.6523 55.7738 40.7343 55.8421 40.83 55.8898C40.9257 55.9341 41.0351 55.958 41.1581 55.958C41.2812 55.958 41.3803 55.9444 41.4555 55.9137C41.5307 55.883 41.5956 55.8523 41.6435 55.8148C41.6948 55.7807 41.7392 55.7466 41.7802 55.7159C41.8178 55.6852 41.8623 55.6715 41.9101 55.6715C41.9716 55.6715 42.0195 55.6954 42.0503 55.7432L42.269 56.0194C42.1836 56.1183 42.0913 56.2001 41.9921 56.2683C41.893 56.3365 41.7905 56.3877 41.6845 56.4286C41.5786 56.4695 41.4692 56.4968 41.3564 56.5139C41.2436 56.5309 41.1308 56.5377 41.0214 56.5377C40.8266 56.5377 40.642 56.5002 40.4677 56.4286C40.2934 56.3536 40.143 56.2479 40.0131 56.1081C39.8832 55.9682 39.7806 55.7977 39.7054 55.5931C39.6302 55.3885 39.5927 55.16 39.5927 54.9008C39.5927 54.6689 39.6268 54.4541 39.6918 54.2529C39.7601 54.0551 39.8558 53.8846 39.9857 53.738C40.1156 53.5913 40.2763 53.4788 40.4677 53.3969C40.6591 53.3151 40.8813 53.2742 41.1308 53.2742C41.3666 53.2742 41.5751 53.3117 41.7529 53.3867C41.9306 53.4651 42.0913 53.5743 42.2348 53.7141L42.0366 53.9971Z" fill="#231F20"/>
<path d="M43.6431 52.4046C43.6431 52.4694 43.6294 52.5308 43.6021 52.5888C43.5747 52.6468 43.5406 52.6979 43.4961 52.7423C43.4517 52.7866 43.4004 52.8207 43.3389 52.8446C43.2774 52.8719 43.2158 52.8855 43.1475 52.8855C43.0825 52.8855 43.0176 52.8719 42.9595 52.8446C42.9014 52.8207 42.8501 52.7866 42.8057 52.7423C42.7612 52.7013 42.7271 52.6502 42.7031 52.5888C42.6758 52.5308 42.6655 52.4694 42.6655 52.4046C42.6655 52.3364 42.6792 52.2717 42.7031 52.2137C42.7305 52.1557 42.7647 52.1046 42.8057 52.0602C42.8501 52.0159 42.9014 51.9818 42.9595 51.9545C43.0176 51.9306 43.0825 51.917 43.1475 51.917C43.2158 51.917 43.2808 51.9306 43.3389 51.9545C43.4004 51.9818 43.4517 52.0159 43.4961 52.0602C43.5406 52.1011 43.5747 52.1557 43.6021 52.2137C43.6294 52.2717 43.6431 52.3364 43.6431 52.4046ZM43.5371 53.3288V56.4969H42.7715V53.3288H43.5371Z" fill="#231F20"/>
<path d="M45.67 53.2776C45.8716 53.2776 46.0562 53.3083 46.2237 53.3731C46.3912 53.4379 46.5382 53.5299 46.6612 53.6527C46.7843 53.7755 46.8766 53.9255 46.9483 54.1029C47.0167 54.2802 47.0509 54.4848 47.0509 54.7133C47.0509 54.8292 47.0406 54.9077 47.0133 54.9452C46.9894 54.9861 46.9415 55.0066 46.8697 55.0066H44.9043C44.918 55.1703 44.9453 55.3101 44.9898 55.4294C45.0342 55.5488 45.0957 55.6443 45.1709 55.7227C45.2461 55.7977 45.335 55.8557 45.4341 55.8966C45.5367 55.9341 45.6495 55.9546 45.7725 55.9546C45.8956 55.9546 46.0015 55.941 46.0938 55.9103C46.1827 55.8796 46.2613 55.8489 46.3297 55.8148C46.398 55.7807 46.4561 55.7466 46.5074 55.7193C46.5587 55.692 46.6065 55.6784 46.6544 55.6784C46.7193 55.6784 46.7672 55.7022 46.7979 55.75L47.0167 56.0262C46.9312 56.1251 46.8355 56.207 46.733 56.2752C46.627 56.3434 46.5177 56.3945 46.4014 56.4354C46.2852 56.4764 46.169 56.5036 46.0528 56.5207C45.9332 56.5377 45.8204 56.5446 45.7076 56.5446C45.4854 56.5446 45.2803 56.5071 45.0923 56.4354C44.9043 56.3604 44.7368 56.2547 44.5967 56.1115C44.4566 55.9682 44.3472 55.7909 44.2651 55.5795C44.1831 55.368 44.1455 55.1225 44.1455 54.8463C44.1455 54.628 44.1797 54.4268 44.2515 54.2359C44.3198 54.0449 44.4224 53.8812 44.5523 53.738C44.6821 53.5981 44.8428 53.4856 45.0308 53.4038C45.2188 53.3219 45.4341 53.2776 45.67 53.2776ZM45.6871 53.8232C45.4649 53.8232 45.2906 53.888 45.1641 54.0142C45.0376 54.137 44.959 54.3177 44.9214 54.5496H46.3638C46.3638 54.4507 46.3502 54.3586 46.3228 54.27C46.2955 54.1813 46.2545 54.1063 46.1964 54.0415C46.1417 53.9767 46.0699 53.9255 45.9844 53.8846C45.899 53.8437 45.7999 53.8232 45.6871 53.8232Z" fill="#231F20"/>
<path d="M48.6437 56.5447C48.3669 56.5447 48.1549 56.4662 48.008 56.3128C47.861 56.1593 47.7858 55.9411 47.7858 55.6682V53.8983H47.4611C47.42 53.8983 47.3859 53.8847 47.3551 53.8574C47.3278 53.8301 47.3141 53.7892 47.3141 53.7381V53.4346L47.8234 53.3527L47.984 52.4865C47.9943 52.4456 48.0148 52.4115 48.0421 52.391C48.0695 52.3706 48.1071 52.3569 48.1549 52.3569H48.5514V53.3527H49.3991V53.8949H48.5514V55.6103C48.5514 55.7092 48.5754 55.7876 48.6232 55.8422C48.6711 55.8967 48.7394 55.924 48.8215 55.924C48.8693 55.924 48.9069 55.9172 48.9411 55.907C48.9753 55.8967 49.0026 55.8831 49.0265 55.8729C49.0505 55.8592 49.071 55.849 49.0881 55.8353C49.1086 55.8251 49.1257 55.8183 49.1462 55.8183C49.1701 55.8183 49.1872 55.8251 49.2009 55.8353C49.2145 55.8456 49.2316 55.866 49.2453 55.8865L49.4743 56.2582C49.3615 56.3503 49.2351 56.4219 49.0915 56.4696C48.9479 56.5208 48.7975 56.5447 48.6437 56.5447Z" fill="#231F20"/>
<path d="M51.0433 57.3665C51.0193 57.4211 50.992 57.462 50.9544 57.4893C50.9168 57.5166 50.8621 57.5302 50.7903 57.5302H50.2195L50.8143 56.2616L49.5291 53.3289H50.2024C50.2605 53.3289 50.3084 53.3425 50.3426 53.3698C50.3767 53.4005 50.4007 53.4312 50.4178 53.4687L51.0911 55.1124C51.1321 55.2249 51.1663 55.3375 51.1937 55.4466C51.2107 55.3886 51.2278 55.3341 51.2483 55.2761C51.2689 55.2215 51.2894 55.1635 51.3133 55.109L51.9491 53.4687C51.9661 53.4277 51.9935 53.3936 52.0311 53.3664C52.0687 53.3391 52.1131 53.3254 52.1576 53.3254H52.7694L51.0433 57.3665Z" fill="#231F20"/>
<path d="M55.9037 53.2776C56.1396 53.2776 56.3549 53.3151 56.5463 53.3901C56.7412 53.4686 56.9052 53.5743 57.042 53.7141C57.1787 53.8539 57.2846 54.0244 57.3598 54.2256C57.435 54.4268 57.4726 54.6519 57.4726 54.9009C57.4726 55.1532 57.435 55.3783 57.3598 55.5795C57.2846 55.7807 57.1787 55.9512 57.042 56.0944C56.9052 56.2377 56.7412 56.3468 56.5463 56.4218C56.3549 56.4968 56.1396 56.5343 55.9037 56.5343C55.6679 56.5343 55.4526 56.4968 55.2577 56.4218C55.0629 56.3468 54.8988 56.2377 54.7621 56.0944C54.6254 55.9512 54.5194 55.7807 54.4442 55.5795C54.369 55.3783 54.3314 55.1498 54.3314 54.9009C54.3314 54.6519 54.369 54.4268 54.4442 54.2256C54.5194 54.0244 54.6254 53.8539 54.7621 53.7141C54.8988 53.5743 55.0629 53.4686 55.2577 53.3901C55.4526 53.3185 55.6679 53.2776 55.9037 53.2776ZM55.9037 55.9546C56.1669 55.9546 56.3652 55.8659 56.4916 55.6886C56.6181 55.5113 56.6831 55.2521 56.6831 54.9111C56.6831 54.5701 56.6215 54.3109 56.4916 54.1301C56.3652 53.9494 56.1703 53.8607 55.9037 53.8607C55.6371 53.8607 55.4389 53.9494 55.309 54.1301C55.1791 54.3109 55.1176 54.5701 55.1176 54.9111C55.1176 55.2487 55.1825 55.5079 55.309 55.6886C55.4389 55.8659 55.6371 55.9546 55.9037 55.9546Z" fill="#231F20"/>
<path d="M58.2007 56.497V53.9018L57.9273 53.8575C57.8657 53.8438 57.8213 53.8234 57.7837 53.7961C57.7495 53.7654 57.729 53.7211 57.729 53.6665V53.3562H58.2007V53.1209C58.2007 52.9401 58.228 52.7764 58.2827 52.6332C58.3374 52.49 58.416 52.3672 58.5186 52.2649C58.6211 52.1626 58.7442 52.0876 58.8912 52.033C59.0381 51.9819 59.2022 51.9512 59.3868 51.9512C59.5338 51.9512 59.6705 51.9716 59.7969 52.0091L59.7799 52.3911C59.7764 52.4218 59.7696 52.4422 59.7559 52.4593C59.7423 52.4763 59.7218 52.49 59.6978 52.5002C59.6739 52.5104 59.6466 52.5139 59.6158 52.5207C59.585 52.5241 59.5543 52.5241 59.5167 52.5241C59.4278 52.5241 59.3458 52.5343 59.274 52.5514C59.2022 52.5718 59.1441 52.6059 59.0928 52.6537C59.045 52.7014 59.0074 52.7662 58.98 52.8446C58.9527 52.9231 58.9424 53.022 58.9424 53.1379V53.3494H59.7696V53.8916H58.9698V56.4867H58.2007V56.497Z" fill="#231F20"/>
<path d="M61.2565 52.0329H61.9538C62.0255 52.0329 62.0871 52.05 62.1349 52.0841C62.1828 52.1182 62.217 52.1625 62.234 52.2205L62.9963 54.8907C63.0134 54.9555 63.027 55.0271 63.0441 55.1055C63.0578 55.1806 63.0749 55.2658 63.092 55.3511C63.1091 55.2658 63.1262 55.184 63.1467 55.1055C63.1672 55.0271 63.1877 54.9555 63.2116 54.8907L64.0901 52.2205C64.1072 52.1728 64.1379 52.1284 64.1892 52.0909C64.237 52.05 64.2986 52.0329 64.3669 52.0329H64.613C64.6848 52.0329 64.7429 52.05 64.7874 52.0841C64.8318 52.1216 64.866 52.1659 64.8899 52.2205L65.7649 54.8907C65.8094 55.0203 65.847 55.1669 65.8846 55.3306C65.9119 55.1703 65.9392 55.0203 65.9734 54.8907L66.7357 52.2205C66.7493 52.1694 66.7767 52.125 66.828 52.0875C66.8792 52.05 66.9407 52.0295 67.0091 52.0295H67.662L66.2708 56.4935H65.5188L64.5413 53.4448C64.5276 53.4039 64.5139 53.3629 64.5002 53.3186C64.49 53.2743 64.4763 53.2265 64.4626 53.1754C64.4524 53.2265 64.4387 53.2743 64.4285 53.3186C64.4148 53.3629 64.4011 53.4039 64.3909 53.4448L63.403 56.4935H62.6476L61.2565 52.0329Z" fill="#231F20"/>
<path d="M69.1147 53.2776C69.3505 53.2776 69.5659 53.3151 69.7573 53.3901C69.9487 53.4686 70.1162 53.5743 70.2529 53.7141C70.3896 53.8539 70.4956 54.0244 70.5708 54.2256C70.6426 54.4268 70.6802 54.6519 70.6802 54.9009C70.6802 55.1532 70.6426 55.3783 70.5708 55.5795C70.4956 55.7807 70.3896 55.9512 70.2529 56.0944C70.1162 56.2377 69.9487 56.3468 69.7573 56.4218C69.5659 56.4968 69.3505 56.5343 69.1147 56.5343C68.8754 56.5343 68.6635 56.4968 68.4687 56.4218C68.2738 56.3468 68.1098 56.2377 67.973 56.0944C67.8363 55.9512 67.7269 55.7807 67.6552 55.5795C67.58 55.3783 67.5424 55.1498 67.5424 54.9009C67.5424 54.6519 67.58 54.4268 67.6552 54.2256C67.7304 54.0244 67.8363 53.8539 67.973 53.7141C68.1098 53.5743 68.2738 53.4686 68.4687 53.3901C68.6601 53.3185 68.8754 53.2776 69.1147 53.2776ZM69.1147 55.9546C69.3779 55.9546 69.5727 55.8659 69.6992 55.6886C69.8256 55.5113 69.8906 55.2521 69.8906 54.9111C69.8906 54.5701 69.8256 54.3109 69.6992 54.1301C69.5727 53.9494 69.3779 53.8607 69.1147 53.8607C68.8447 53.8607 68.6464 53.9494 68.5199 54.1301C68.3935 54.3109 68.3285 54.5701 68.3285 54.9111C68.3285 55.2487 68.3935 55.5079 68.5199 55.6886C68.6464 55.8659 68.8447 55.9546 69.1147 55.9546Z" fill="#231F20"/>
<path d="M71.2646 56.4968V53.3287H71.7329C71.832 53.3287 71.897 53.3731 71.9278 53.4651L71.979 53.7004C72.0337 53.6391 72.0918 53.5811 72.1534 53.5299C72.2149 53.4788 72.2798 53.4344 72.3482 53.3969C72.4165 53.3594 72.4917 53.3321 72.5704 53.3083C72.649 53.2878 72.7378 53.2776 72.8301 53.2776C73.0318 53.2776 73.1959 53.3321 73.3258 53.4379C73.4556 53.547 73.5513 53.6902 73.6129 53.8675C73.6607 53.7618 73.7257 53.6732 73.7975 53.5981C73.8726 53.5231 73.9513 53.4617 74.0401 53.414C74.129 53.3662 74.2247 53.3321 74.3238 53.3083C74.4264 53.2844 74.5255 53.2742 74.628 53.2742C74.8024 53.2742 74.9562 53.3015 75.0929 53.356C75.2296 53.4106 75.3424 53.4856 75.4381 53.5913C75.5304 53.6936 75.6022 53.8198 75.6501 53.9664C75.6979 54.1165 75.7218 54.287 75.7218 54.478V56.4934H74.9562V54.478C74.9562 54.2768 74.9117 54.1233 74.8263 54.021C74.7374 53.9221 74.6075 53.8675 74.4366 53.8675C74.358 53.8675 74.2862 53.8812 74.2179 53.9051C74.1495 53.9323 74.0914 53.9699 74.0401 54.021C73.9889 54.0722 73.9513 54.1335 73.9205 54.2086C73.8897 54.2836 73.8761 54.3723 73.8761 54.4712V56.4866H73.107V54.4712C73.107 54.2597 73.066 54.1063 72.9771 54.0074C72.8917 53.9119 72.7686 53.8607 72.6011 53.8607C72.4883 53.8607 72.3858 53.888 72.2901 53.9426C72.1944 53.9971 72.1055 54.0722 72.0235 54.1676V56.4866H71.2646V56.4968Z" fill="#231F20"/>
<path d="M77.7966 53.2776C77.9982 53.2776 78.1794 53.3083 78.3503 53.3731C78.5178 53.4379 78.6648 53.5299 78.7878 53.6527C78.9109 53.7755 79.0031 53.9255 79.0749 54.1029C79.1433 54.2802 79.1775 54.4848 79.1775 54.7133C79.1775 54.8292 79.1638 54.9077 79.1399 54.9452C79.1159 54.9861 79.0681 55.0066 78.9997 55.0066H77.0343C77.0446 55.1703 77.0753 55.3101 77.1198 55.4294C77.1642 55.5488 77.2257 55.6443 77.3009 55.7227C77.3761 55.7977 77.4616 55.8557 77.5641 55.8966C77.6667 55.9341 77.7795 55.9546 77.9025 55.9546C78.0256 55.9546 78.1315 55.941 78.2204 55.9103C78.3127 55.8796 78.3879 55.8489 78.4563 55.8148C78.5246 55.7807 78.5827 55.7466 78.6306 55.7193C78.6818 55.692 78.7297 55.6784 78.7775 55.6784C78.8391 55.6784 78.8903 55.7022 78.9211 55.75L79.1399 56.0262C79.0544 56.1251 78.9621 56.207 78.8562 56.2752C78.7502 56.3434 78.6408 56.3945 78.528 56.4354C78.4118 56.4764 78.2956 56.5036 78.1794 56.5207C78.0598 56.5377 77.947 56.5446 77.8342 56.5446C77.6154 56.5446 77.4069 56.5071 77.2189 56.4354C77.0309 56.3604 76.8668 56.2547 76.7267 56.1115C76.5866 55.9682 76.4738 55.7909 76.3951 55.5795C76.3165 55.368 76.2755 55.1225 76.2755 54.8463C76.2755 54.628 76.3131 54.4268 76.3815 54.2359C76.4533 54.0449 76.5524 53.8812 76.6857 53.738C76.8156 53.5981 76.9762 53.4856 77.1642 53.4038C77.3488 53.3219 77.5607 53.2776 77.7966 53.2776ZM77.8137 53.8232C77.5915 53.8232 77.4172 53.888 77.2907 54.0142C77.1642 54.137 77.0856 54.3177 77.048 54.5496H78.4904C78.4904 54.4507 78.4768 54.3586 78.4494 54.27C78.4221 54.1813 78.3811 54.1063 78.3229 54.0415C78.2683 53.9767 78.1965 53.9255 78.111 53.8846C78.0256 53.8437 77.9264 53.8232 77.8137 53.8232Z" fill="#231F20"/>
<path d="M79.7517 56.4968V53.3287H80.22C80.3191 53.3287 80.3841 53.3731 80.4148 53.4651L80.4661 53.7141C80.531 53.6493 80.596 53.5879 80.6678 53.5333C80.7395 53.4822 80.8147 53.4345 80.8933 53.3935C80.972 53.356 81.0574 53.3253 81.1497 53.3049C81.242 53.2844 81.3377 53.2742 81.4471 53.2742C81.6214 53.2742 81.7752 53.3049 81.9085 53.3628C82.0418 53.4208 82.1546 53.5027 82.2435 53.6084C82.3324 53.7141 82.4007 53.8403 82.4486 53.9869C82.4964 54.1335 82.5169 54.2938 82.5169 54.4746V56.49H81.7513V54.4746C81.7513 54.2802 81.7069 54.1301 81.618 54.0244C81.5291 53.9187 81.3924 53.8641 81.2112 53.8641C81.0779 53.8641 80.9549 53.8948 80.8387 53.9528C80.7259 54.0142 80.6131 54.0926 80.5105 54.1983V56.49H79.7517V56.4968Z" fill="#231F20"/>
<path d="M87.6852 52.033V52.6945H85.6992V53.9324H87.2647V54.5702H85.6992V55.8319H87.6852V56.4969H84.8618V52.033H87.6852Z" fill="#231F20"/>
<path d="M88.2355 56.4968V53.3287H88.7037C88.8029 53.3287 88.8678 53.3731 88.8986 53.4651L88.9499 53.7141C89.0148 53.6493 89.0832 53.5879 89.1515 53.5333C89.2233 53.4822 89.2985 53.4345 89.3771 53.3935C89.4557 53.356 89.5412 53.3253 89.6335 53.3049C89.7258 53.2844 89.8249 53.2742 89.9309 53.2742C90.1052 53.2742 90.259 53.3049 90.3923 53.3628C90.5256 53.4208 90.6384 53.5027 90.7273 53.6084C90.8161 53.7141 90.8845 53.8403 90.9323 53.9869C90.9802 54.1335 91.0007 54.2938 91.0007 54.4746V56.49H90.2385V54.4746C90.2385 54.2802 90.194 54.1301 90.1052 54.0244C90.0163 53.9187 89.883 53.8641 89.6984 53.8641C89.5651 53.8641 89.4421 53.8948 89.3258 53.9528C89.2096 54.0142 89.1003 54.0926 88.9977 54.1983V56.49H88.2355V56.4968Z" fill="#231F20"/>
<path d="M92.8875 53.2708C93.0208 53.2708 93.1507 53.2844 93.2703 53.3117C93.39 53.339 93.4993 53.3799 93.5985 53.4344H94.5111V53.7175C94.5111 53.8062 94.4564 53.8641 94.347 53.8812L94.0633 53.9357C94.0838 53.9903 94.1009 54.0449 94.1112 54.1063C94.1214 54.1676 94.1283 54.229 94.1283 54.2938C94.1283 54.4507 94.0975 54.5905 94.0326 54.7167C93.971 54.8429 93.8822 54.952 93.7728 55.0406C93.66 55.1293 93.5301 55.1975 93.3797 55.2453C93.2259 55.293 93.0652 55.3169 92.8909 55.3169C92.7713 55.3169 92.6551 55.3066 92.5423 55.2828C92.4431 55.3442 92.3953 55.4089 92.3953 55.484C92.3953 55.5454 92.4261 55.5931 92.4842 55.6238C92.5423 55.6545 92.6209 55.6749 92.7166 55.6886C92.8123 55.7022 92.9251 55.709 93.0482 55.7125C93.1712 55.7159 93.3011 55.7227 93.431 55.7329C93.5609 55.7431 93.6873 55.7602 93.8104 55.7875C93.9334 55.8148 94.0428 55.8523 94.1419 55.9102C94.2376 55.9682 94.3197 56.0432 94.3744 56.1353C94.4325 56.2308 94.4632 56.3536 94.4632 56.5036C94.4632 56.6434 94.4291 56.7799 94.3607 56.9129C94.2923 57.0458 94.1932 57.1618 94.0599 57.2641C93.93 57.3664 93.7694 57.4483 93.578 57.513C93.3865 57.5744 93.1678 57.6085 92.9251 57.6085C92.6858 57.6085 92.4773 57.5847 92.2996 57.5403C92.1218 57.496 91.9749 57.4312 91.8552 57.3562C91.739 57.2777 91.6502 57.1925 91.592 57.0902C91.5339 56.9879 91.5066 56.8822 91.5066 56.7764C91.5066 56.6298 91.551 56.5036 91.6399 56.4047C91.7288 56.3024 91.8518 56.224 92.0056 56.1626C91.9236 56.1183 91.8552 56.0603 91.8074 55.9887C91.7595 55.9171 91.7322 55.8216 91.7322 55.7056C91.7322 55.6579 91.739 55.6102 91.7561 55.559C91.7732 55.5078 91.7971 55.4601 91.8313 55.4089C91.8655 55.3612 91.9065 55.3135 91.9612 55.2691C92.0159 55.2248 92.074 55.1839 92.1458 55.1498C91.9851 55.0645 91.8587 54.9486 91.7664 54.8019C91.6741 54.6587 91.6296 54.4882 91.6296 54.2972C91.6296 54.1404 91.6604 54.0005 91.7219 53.8744C91.7869 53.7482 91.8723 53.6391 91.9851 53.5504C92.0979 53.4617 92.2312 53.3935 92.3816 53.3458C92.5389 53.298 92.7063 53.2708 92.8875 53.2708ZM93.7489 56.6366C93.7489 56.5752 93.7318 56.5241 93.6942 56.4866C93.6566 56.4491 93.6053 56.4184 93.5438 56.3945C93.4822 56.374 93.4036 56.357 93.3182 56.3468C93.2327 56.3365 93.1404 56.3297 93.0447 56.3263C92.949 56.3195 92.8499 56.3161 92.7474 56.3127C92.6448 56.3092 92.5457 56.299 92.45 56.2888C92.3645 56.3365 92.2962 56.3911 92.2449 56.4559C92.1936 56.5207 92.1663 56.5957 92.1663 56.6775C92.1663 56.7321 92.18 56.7833 92.2073 56.8344C92.2346 56.8822 92.2791 56.9265 92.3406 56.9606C92.4021 56.9947 92.4807 57.022 92.5765 57.0424C92.6756 57.0629 92.7918 57.0731 92.9319 57.0731C93.0721 57.0731 93.1951 57.0629 93.3011 57.039C93.4036 57.0152 93.4891 56.9879 93.5574 56.9504C93.6258 56.9129 93.6737 56.8685 93.7044 56.814C93.7352 56.756 93.7489 56.698 93.7489 56.6366ZM92.8875 54.8326C92.9832 54.8326 93.0652 54.819 93.1336 54.7951C93.2054 54.7678 93.2635 54.7337 93.3079 54.6894C93.3558 54.6451 93.39 54.5905 93.4139 54.5257C93.4378 54.4609 93.4515 54.3927 93.4515 54.3177C93.4515 54.1608 93.4036 54.038 93.3113 53.946C93.2191 53.8539 93.0789 53.8062 92.8909 53.8062C92.7029 53.8062 92.5628 53.8505 92.4671 53.946C92.3748 54.038 92.3269 54.1608 92.3269 54.3177C92.3269 54.3927 92.3406 54.4609 92.3645 54.5257C92.3885 54.5905 92.4226 54.6451 92.4705 54.6928C92.5183 54.7371 92.5765 54.7747 92.6482 54.8019C92.7132 54.8224 92.7952 54.8326 92.8875 54.8326Z" fill="#231F20"/>
<path d="M95.8987 52.4046C95.8987 52.4694 95.885 52.5308 95.8577 52.5888C95.8304 52.6468 95.7962 52.6979 95.7517 52.7423C95.7073 52.7866 95.6526 52.8207 95.5911 52.8446C95.5296 52.8719 95.4646 52.8855 95.3963 52.8855C95.3279 52.8855 95.2664 52.8719 95.2083 52.8446C95.1501 52.8207 95.0989 52.7866 95.0544 52.7423C95.01 52.7013 94.9758 52.6502 94.9519 52.5888C94.928 52.5308 94.9143 52.4694 94.9143 52.4046C94.9143 52.3364 94.928 52.2717 94.9519 52.2137C94.9758 52.1557 95.0134 52.1046 95.0544 52.0602C95.0989 52.0159 95.1501 51.9818 95.2083 51.9545C95.2664 51.9306 95.3279 51.917 95.3963 51.917C95.4646 51.917 95.5296 51.9306 95.5911 51.9545C95.6526 51.9818 95.7073 52.0159 95.7517 52.0602C95.7962 52.1011 95.8304 52.1557 95.8577 52.2137C95.8885 52.2717 95.8987 52.3364 95.8987 52.4046ZM95.7962 53.3288V56.4969H95.0203V53.3288H95.7962Z" fill="#231F20"/>
<path d="M96.5756 56.4968V53.3287H97.0438C97.143 53.3287 97.2079 53.3731 97.2387 53.4651L97.29 53.7141C97.3549 53.6493 97.4198 53.5879 97.4916 53.5333C97.5634 53.4822 97.6386 53.4345 97.7172 53.3935C97.7958 53.356 97.8813 53.3253 97.9701 53.3049C98.0624 53.2844 98.1616 53.2742 98.2675 53.2742C98.4418 53.2742 98.5957 53.3049 98.729 53.3628C98.8623 53.4208 98.9751 53.5027 99.0673 53.6084C99.1562 53.7141 99.2246 53.8403 99.269 53.9869C99.3169 54.1335 99.3374 54.2938 99.3374 54.4746V56.49H98.5717V54.4746C98.5717 54.2802 98.5273 54.1301 98.4384 54.0244C98.3496 53.9187 98.2162 53.8641 98.0317 53.8641C97.8984 53.8641 97.7753 53.8948 97.6625 53.9528C97.5463 54.0142 97.4369 54.0926 97.3344 54.1983V56.49H96.5756V56.4968Z" fill="#231F20"/>
<path d="M101.416 53.2776C101.614 53.2776 101.798 53.3083 101.969 53.3731C102.14 53.4379 102.284 53.5299 102.407 53.6527C102.526 53.7755 102.626 53.9255 102.694 54.1029C102.762 54.2802 102.796 54.4848 102.796 54.7133C102.796 54.8292 102.783 54.9077 102.759 54.9452C102.735 54.9861 102.687 55.0066 102.615 55.0066H100.65C100.664 55.1703 100.691 55.3101 100.735 55.4294C100.78 55.5488 100.841 55.6443 100.917 55.7227C100.992 55.7977 101.077 55.8557 101.18 55.8966C101.282 55.9341 101.395 55.9546 101.518 55.9546C101.641 55.9546 101.747 55.941 101.839 55.9103C101.928 55.8796 102.007 55.8489 102.075 55.8148C102.14 55.7807 102.202 55.7466 102.25 55.7193C102.301 55.692 102.349 55.6784 102.397 55.6784C102.462 55.6784 102.509 55.7022 102.54 55.75L102.759 56.0262C102.673 56.1251 102.578 56.207 102.475 56.2752C102.369 56.3434 102.26 56.3945 102.147 56.4354C102.031 56.4764 101.915 56.5036 101.798 56.5207C101.679 56.5377 101.563 56.5446 101.453 56.5446C101.234 56.5446 101.026 56.5071 100.838 56.4354C100.647 56.3604 100.482 56.2547 100.342 56.1115C100.202 55.9682 100.093 55.7909 100.014 55.5795C99.9321 55.368 99.8911 55.1225 99.8911 54.8463C99.8911 54.628 99.9253 54.4268 99.9971 54.2359C100.069 54.0449 100.168 53.8812 100.298 53.738C100.428 53.5981 100.588 53.4856 100.776 53.4038C100.968 53.3219 101.18 53.2776 101.416 53.2776ZM101.433 53.8232C101.21 53.8232 101.036 53.888 100.91 54.0142C100.783 54.137 100.705 54.3177 100.67 54.5496H102.113C102.113 54.4507 102.099 54.3586 102.072 54.27C102.045 54.1813 102.003 54.1063 101.945 54.0415C101.891 53.9767 101.819 53.9255 101.733 53.8846C101.645 53.8437 101.545 53.8232 101.433 53.8232Z" fill="#231F20"/>
<path d="M104.721 53.2776C104.923 53.2776 105.107 53.3083 105.275 53.3731C105.442 53.4379 105.589 53.5299 105.712 53.6527C105.832 53.7755 105.927 53.9255 105.999 54.1029C106.068 54.2802 106.102 54.4848 106.102 54.7133C106.102 54.8292 106.092 54.9077 106.064 54.9452C106.04 54.9861 105.992 55.0066 105.924 55.0066H103.959C103.972 55.1703 104 55.3101 104.044 55.4294C104.089 55.5488 104.15 55.6443 104.225 55.7227C104.3 55.7977 104.386 55.8557 104.488 55.8966C104.591 55.9341 104.704 55.9546 104.827 55.9546C104.95 55.9546 105.056 55.941 105.148 55.9103C105.24 55.8796 105.316 55.8489 105.384 55.8148C105.452 55.7807 105.51 55.7466 105.558 55.7193C105.61 55.692 105.657 55.6784 105.705 55.6784C105.77 55.6784 105.818 55.7022 105.849 55.75L106.068 56.0262C105.982 56.1251 105.886 56.207 105.784 56.2752C105.678 56.3434 105.569 56.3945 105.456 56.4354C105.343 56.4764 105.227 56.5036 105.107 56.5207C104.987 56.5377 104.871 56.5446 104.762 56.5446C104.54 56.5446 104.335 56.5071 104.147 56.4354C103.959 56.3604 103.791 56.2547 103.651 56.1115C103.511 55.9682 103.398 55.7909 103.319 55.5795C103.241 55.368 103.2 55.1225 103.2 54.8463C103.2 54.628 103.234 54.4268 103.306 54.2359C103.374 54.0449 103.477 53.8812 103.607 53.738C103.74 53.5981 103.897 53.4856 104.085 53.4038C104.273 53.3219 104.485 53.2776 104.721 53.2776ZM104.738 53.8232C104.516 53.8232 104.341 53.888 104.215 54.0142C104.089 54.137 104.01 54.3177 103.972 54.5496H105.415C105.415 54.4507 105.401 54.3586 105.374 54.27C105.346 54.1813 105.305 54.1063 105.247 54.0415C105.193 53.9767 105.121 53.9255 105.035 53.8846C104.95 53.8437 104.851 53.8232 104.738 53.8232Z" fill="#231F20"/>
<path d="M106.673 56.4968V53.3287H107.12C107.199 53.3287 107.254 53.3424 107.284 53.3696C107.315 53.3969 107.336 53.4481 107.346 53.5197L107.387 53.8778C107.49 53.6868 107.606 53.5402 107.746 53.431C107.883 53.3219 108.043 53.2708 108.228 53.2708C108.375 53.2708 108.491 53.3014 108.58 53.3662L108.532 53.9391C108.522 53.9767 108.505 54.0039 108.488 54.0176C108.467 54.0312 108.44 54.0415 108.409 54.0415C108.378 54.0415 108.334 54.038 108.269 54.0278C108.207 54.0142 108.149 54.0108 108.091 54.0108C108.006 54.0108 107.93 54.0244 107.866 54.0483C107.797 54.0722 107.739 54.1097 107.688 54.154C107.637 54.2017 107.589 54.2563 107.551 54.3245C107.51 54.3893 107.472 54.4643 107.438 54.5496V56.5002H106.673V56.4968Z" fill="#231F20"/>
<path d="M110.918 53.946C110.897 53.9801 110.877 54.0006 110.853 54.0142C110.829 54.0278 110.802 54.0347 110.767 54.0347C110.73 54.0347 110.692 54.0244 110.648 54.004C110.607 53.9835 110.555 53.9596 110.501 53.9358C110.446 53.9119 110.381 53.888 110.309 53.8676C110.238 53.8471 110.156 53.8369 110.056 53.8369C109.906 53.8369 109.786 53.8676 109.701 53.9324C109.616 53.9972 109.571 54.079 109.571 54.1813C109.571 54.2495 109.595 54.3075 109.636 54.3518C109.68 54.3996 109.739 54.4405 109.814 54.4746C109.886 54.5087 109.971 54.5428 110.063 54.5701C110.156 54.5974 110.251 54.628 110.347 54.6621C110.443 54.6928 110.535 54.7304 110.631 54.7747C110.723 54.8156 110.808 54.8702 110.88 54.935C110.952 54.9998 111.014 55.0782 111.055 55.1669C111.099 55.2589 111.119 55.3646 111.119 55.4942C111.119 55.6443 111.092 55.7875 111.037 55.9137C110.983 56.0433 110.901 56.1524 110.795 56.2479C110.689 56.34 110.555 56.415 110.395 56.4661C110.238 56.5173 110.056 56.5446 109.848 56.5446C109.739 56.5446 109.633 56.5344 109.527 56.5139C109.424 56.4934 109.322 56.4661 109.226 56.4355C109.13 56.3979 109.041 56.357 108.959 56.3127C108.877 56.2649 108.805 56.2138 108.744 56.1592L108.922 55.8694C108.946 55.8353 108.973 55.808 109.004 55.7875C109.034 55.7705 109.072 55.7602 109.12 55.7602C109.168 55.7602 109.212 55.7739 109.257 55.8012C109.298 55.8284 109.349 55.8557 109.404 55.8864C109.458 55.9171 109.523 55.9478 109.598 55.9717C109.674 55.999 109.769 56.0126 109.886 56.0126C109.978 56.0126 110.053 56.0024 110.118 55.9819C110.183 55.958 110.238 55.9307 110.279 55.8966C110.32 55.8625 110.354 55.8216 110.371 55.7739C110.391 55.7295 110.402 55.6784 110.402 55.6306C110.402 55.5556 110.381 55.4977 110.337 55.4499C110.292 55.4022 110.234 55.3612 110.159 55.3271C110.087 55.293 110.002 55.2623 109.909 55.2351C109.814 55.2078 109.718 55.1771 109.622 55.143C109.523 55.1089 109.428 55.0714 109.335 55.027C109.243 54.9827 109.157 54.9281 109.086 54.8599C109.014 54.7917 108.956 54.7099 108.911 54.611C108.867 54.5121 108.843 54.3927 108.843 54.2529C108.843 54.1233 108.867 54.0006 108.922 53.8812C108.973 53.7653 109.048 53.663 109.147 53.5743C109.25 53.4856 109.373 53.4174 109.523 53.3629C109.674 53.3117 109.845 53.2844 110.043 53.2844C110.262 53.2844 110.46 53.3185 110.641 53.3936C110.819 53.4652 110.969 53.5606 111.089 53.6766L110.918 53.946Z" fill="#231F20"/>
<path d="M111.297 25.9994C111.061 25.9994 110.843 25.9585 110.644 25.8767C110.446 25.7948 110.272 25.6823 110.125 25.5356C109.978 25.389 109.865 25.2185 109.783 25.0207C109.701 24.8229 109.663 24.6046 109.663 24.3728C109.663 24.1375 109.704 23.9192 109.787 23.7214C109.869 23.5236 109.981 23.3497 110.128 23.2065C110.275 23.0598 110.45 22.9473 110.648 22.8654C110.846 22.7836 111.065 22.7427 111.297 22.7427C111.523 22.7427 111.738 22.7836 111.933 22.8654C112.131 22.9473 112.302 23.0598 112.453 23.2065C112.603 23.3531 112.719 23.5236 112.801 23.7214C112.887 23.9192 112.928 24.134 112.928 24.3693C112.928 24.6046 112.887 24.8195 112.805 25.0173C112.723 25.2151 112.61 25.389 112.463 25.5322C112.316 25.6789 112.142 25.7914 111.943 25.8732C111.748 25.9585 111.53 25.9994 111.297 25.9994ZM111.297 25.7778C111.489 25.7778 111.67 25.7437 111.837 25.6755C112.005 25.6072 112.155 25.5084 112.282 25.3822C112.408 25.256 112.511 25.1059 112.583 24.9354C112.654 24.7649 112.692 24.5774 112.692 24.3728C112.692 24.1784 112.658 23.9976 112.589 23.8305C112.521 23.6634 112.425 23.5134 112.299 23.3838C112.176 23.2542 112.029 23.1519 111.858 23.0803C111.687 23.0087 111.502 22.9712 111.301 22.9712C111.099 22.9712 110.911 23.0053 110.744 23.0735C110.573 23.1417 110.426 23.2406 110.303 23.3667C110.176 23.4929 110.08 23.643 110.012 23.8135C109.944 23.984 109.91 24.1716 109.91 24.3762C109.91 24.5705 109.944 24.7513 110.012 24.9218C110.08 25.0923 110.176 25.2424 110.303 25.3685C110.429 25.4981 110.576 25.597 110.744 25.672C110.904 25.7437 111.092 25.7778 111.297 25.7778ZM110.696 25.3413V23.4077H111.263C111.499 23.4077 111.673 23.4554 111.786 23.5509C111.899 23.6464 111.957 23.7896 111.957 23.9772C111.957 24.117 111.919 24.2295 111.851 24.308C111.779 24.3898 111.697 24.4478 111.605 24.4853L112.118 25.3413H111.762L111.314 24.5705H111.014V25.3413H110.696ZM111.01 24.3148H111.253C111.372 24.3148 111.468 24.2841 111.537 24.2261C111.605 24.1681 111.639 24.0863 111.639 23.9874C111.639 23.8749 111.608 23.7964 111.543 23.7453C111.478 23.6975 111.383 23.6703 111.249 23.6703H111.014V24.3148H111.01Z" fill="#5A5377"/>
</mask>
<g mask="url(#mask0_60_86)">
<rect x="-12.5" y="-11" width="152" height="87" fill="#895FD8"/>
</g>
</svg>
