<svg width="114" height="59" viewBox="0 0 114 59" fill="none" xmlns="http://www.w3.org/2000/svg">
<mask id="mask0_359_177" style="mask-type:alpha" maskUnits="userSpaceOnUse" x="0" y="0" width="114" height="59">
<path d="M48.5676 27.8342C48.4377 28.0593 48.2941 28.2196 48.1335 28.3151C47.9728 28.4105 47.7712 28.4583 47.5319 28.4583C47.2585 28.4583 46.9611 28.373 46.6398 28.2059C46.3185 28.0388 45.9425 27.8513 45.5084 27.6398C45.0743 27.4318 44.565 27.2443 43.9771 27.0737C43.3926 26.9066 42.7021 26.8214 41.916 26.8214C41.2734 26.8214 40.6923 26.8964 40.1693 27.0499C39.6464 27.2033 39.2054 27.4182 38.8431 27.6978C38.4808 27.9774 38.2039 28.3082 38.0125 28.6834C37.8211 29.0619 37.7254 29.4643 37.7254 29.8974C37.7254 30.4737 37.8997 30.9546 38.2552 31.3399C38.6073 31.7253 39.0721 32.0595 39.6532 32.3391C40.2309 32.6187 40.8906 32.8711 41.6289 33.0962C42.3672 33.3212 43.1226 33.5634 43.8951 33.8191C44.6675 34.0749 45.4229 34.3716 46.1612 34.7092C46.8996 35.0468 47.5592 35.4594 48.1369 35.9471C48.7146 36.4382 49.1828 37.0281 49.5349 37.7272C49.887 38.4229 50.0647 39.2686 50.0647 40.2644C50.0647 41.4171 49.8562 42.4845 49.4392 43.4632C49.0222 44.4419 48.4103 45.2911 47.6071 46.014C46.8038 46.737 45.8023 47.2963 44.606 47.6987C43.4097 48.1011 42.039 48.3023 40.4975 48.3023C39.6464 48.3023 38.8226 48.2273 38.0262 48.0738C37.2298 47.9238 36.4744 47.7157 35.76 47.4497C35.0456 47.1871 34.3791 46.87 33.7604 46.4983C33.1418 46.1334 32.5914 45.731 32.1095 45.2979L33.3161 43.3234C33.4596 43.0847 33.6408 42.8937 33.8596 42.7607C34.0749 42.6243 34.3449 42.5561 34.6662 42.5561C35.0046 42.5561 35.3396 42.6652 35.6677 42.8801C35.9959 43.0949 36.3821 43.3336 36.8265 43.5894C37.2674 43.8451 37.8006 44.0804 38.4295 44.2987C39.0585 44.5135 39.8378 44.6227 40.7675 44.6227C41.54 44.6227 42.2065 44.5306 42.7671 44.3464C43.3311 44.1623 43.7959 43.9099 44.1651 43.5894C44.5342 43.2688 44.8077 42.9039 44.9854 42.4947C45.1632 42.0855 45.2486 41.649 45.2486 41.1852C45.2486 40.5611 45.0709 40.0462 44.7188 39.6472C44.3668 39.2482 43.8951 38.9003 43.3106 38.6139C42.7261 38.324 42.0561 38.0683 41.311 37.8432C40.5624 37.6181 39.8036 37.3794 39.0311 37.1236C38.2586 36.8679 37.4998 36.5712 36.7547 36.2336C36.0061 35.8959 35.343 35.4663 34.7551 34.9445C34.1672 34.4227 33.6989 33.7919 33.3434 33.045C32.9914 32.2982 32.8136 31.3911 32.8136 30.3134C32.8136 29.3347 33.0119 28.4037 33.405 27.5239C33.798 26.6441 34.3757 25.8665 35.1413 25.1913C35.9036 24.5195 36.8435 23.9841 37.9613 23.5919C39.079 23.1997 40.3676 23.002 41.8305 23.002C43.4849 23.002 44.9888 23.2645 46.339 23.7965C47.6891 24.3251 48.8239 25.0481 49.7366 25.962L48.5676 27.8342Z" fill="#5A5377"/>
<path d="M50.9295 23.3876H55.0278C55.4311 23.3876 55.7627 23.4899 56.0293 23.6877C56.2925 23.8889 56.4668 24.1242 56.5454 24.397L60.6437 38.6824C60.8044 39.3371 60.9445 39.9748 61.0641 40.5955C61.1838 41.2127 61.2931 41.8266 61.3888 42.4336C61.5495 41.8232 61.717 41.2127 61.8845 40.5955C62.0554 39.9782 62.2434 39.3405 62.4519 38.6824L67.0663 24.3254C67.1483 24.0355 67.3124 23.8002 67.5619 23.6161C67.8114 23.4319 68.1122 23.3398 68.4643 23.3398H70.7305C71.0996 23.3398 71.4141 23.4319 71.6704 23.6161C71.9268 23.8002 72.0977 24.0389 72.1763 24.3254L76.6609 38.6824C76.8352 39.3371 77.0129 39.9817 77.1907 40.6023C77.365 41.2298 77.5291 41.847 77.6726 42.4541C77.864 41.2366 78.1375 39.9782 78.4929 38.679L82.663 24.3936C82.7621 24.1037 82.9365 23.865 83.1928 23.674C83.4492 23.4797 83.7636 23.3842 84.1328 23.3842H88.0362L80.1541 47.9138H76.0319C75.55 47.9138 75.2116 47.6001 75.0202 46.976L70.1289 31.7051C69.999 31.272 69.8828 30.8423 69.7768 30.4194C69.6743 29.9966 69.582 29.5669 69.5 29.1338C69.3222 30 69.1069 30.8662 68.8505 31.729L63.8772 46.976C63.6995 47.6035 63.3201 47.9138 62.739 47.9138H58.8082L50.9295 23.3876Z" fill="#5A5377"/>
<path d="M100.259 23.002C101.77 23.002 103.168 23.2475 104.453 23.7351C105.738 24.2228 106.849 24.939 107.779 25.887C108.712 26.835 109.44 27.9911 109.96 29.362C110.483 30.7329 110.743 32.2914 110.743 34.0374C110.743 34.8388 110.654 35.3776 110.479 35.647C110.305 35.9198 109.98 36.0562 109.515 36.0562H93.7273C93.7923 37.451 94.0076 38.6548 94.3768 39.6745C94.7459 40.6941 95.2416 41.5398 95.8602 42.2117C96.4789 42.8835 97.2172 43.3848 98.0786 43.7156C98.9399 44.0429 99.9004 44.2066 100.96 44.2066C101.972 44.2066 102.847 44.0907 103.589 43.8588C104.327 43.6269 104.969 43.3711 105.516 43.0881C106.063 42.8084 106.528 42.5527 106.914 42.3174C107.301 42.0855 107.653 41.9695 107.974 41.9695C108.391 41.9695 108.712 42.1298 108.938 42.4504L110.408 44.3499C109.796 45.0694 109.105 45.6798 108.336 46.1777C107.564 46.6756 106.743 47.0814 105.875 47.3918C105.007 47.7055 104.115 47.9272 103.199 48.0636C102.283 48.2 101.391 48.2682 100.522 48.2682C98.8203 48.2682 97.2411 47.9817 95.7884 47.4156C94.3323 46.8495 93.0745 46.0072 92.0046 44.9023C90.9348 43.794 90.1008 42.4265 89.4992 40.7896C88.8976 39.1561 88.5968 37.2703 88.5968 35.1389C88.5968 33.4406 88.8634 31.8514 89.4035 30.3782C89.9435 28.9016 90.7126 27.6194 91.7175 26.5315C92.7224 25.4403 93.9427 24.5809 95.3817 23.9466C96.8173 23.3191 98.4409 23.002 100.259 23.002ZM100.355 26.7532C98.4751 26.7532 96.995 27.2886 95.9183 28.3628C94.8416 29.437 94.158 30.9443 93.8675 32.8813H106.091C106.091 32.0185 105.964 31.2103 105.715 30.4669C105.465 29.7201 105.099 29.0721 104.617 28.5197C104.135 27.9638 103.537 27.5341 102.823 27.2204C102.112 26.9101 101.288 26.7532 100.355 26.7532Z" fill="#5A5377"/>
<path d="M8.88701 6.90614C9.15704 7.38357 9.45441 7.85077 9.69368 8.34184C10.2201 9.40923 10.2987 10.521 9.91927 11.6531C9.83382 11.9055 9.7347 12.1476 9.62532 12.3829L13.3955 14.3813C14.7422 12.4784 16.9571 11.2235 19.4728 11.2132C21.8826 11.2064 24.0257 12.3386 25.3964 14.0983L29.1904 11.9976C29.1289 11.8509 29.064 11.7043 29.0127 11.5474C28.7187 10.6812 28.7017 9.80482 28.9717 8.92498C29.1631 8.29751 29.4844 7.728 29.8194 7.16873C30.0826 6.72881 30.3423 6.28548 30.5816 5.83193C30.7525 5.51478 30.8448 5.16352 30.8277 4.79522C30.8038 4.31438 30.5816 3.9188 30.2535 3.59142C29.4844 2.81048 28.5444 2.29213 27.5293 1.91019C27.2797 1.8147 27.0131 1.77378 26.7499 1.70898C26.603 1.70898 26.4491 1.70898 26.3022 1.71239C26.1894 1.73968 26.0731 1.76696 25.9604 1.80447C25.5809 1.93406 25.287 2.18641 25.0682 2.51038C24.8255 2.86845 24.6068 3.24358 24.3983 3.62211C24.0975 4.16433 23.8104 4.71338 23.4344 5.21127C22.6824 6.20705 21.6775 6.76973 20.447 6.94706C19.5788 7.06983 18.7208 7.04937 17.8697 6.83794C16.7794 6.56853 15.9249 5.94787 15.3096 5.02371C14.961 4.49853 14.6704 3.93585 14.3423 3.39363C14.144 3.06625 13.9458 2.73546 13.7099 2.43195C13.4296 2.06706 13.0537 1.83175 12.582 1.77719C12.5717 1.77378 12.558 1.76696 12.5478 1.76014C12.4247 1.76014 12.2983 1.76014 12.1752 1.76355C12.0624 1.78401 11.9496 1.80447 11.8368 1.82834C11.2045 1.96816 10.6302 2.25462 10.0765 2.57859C9.53987 2.88892 9.03057 3.23335 8.61015 3.69031C8.05984 4.2871 7.89577 4.96573 8.23758 5.71257C8.42557 6.12179 8.66484 6.51056 8.88701 6.90614Z" fill="#DBC554"/>
<path d="M37.9441 16.7759C37.7185 16.0427 37.2571 15.5516 36.4743 15.4391C36.0984 15.3845 35.7155 15.3777 35.3361 15.3777C34.5841 15.3777 33.8287 15.4425 33.0768 15.3368C32.1607 15.2072 31.3506 14.8491 30.6773 14.2114C30.5303 14.0716 30.3936 13.9249 30.2637 13.7715L26.4252 15.896C26.7704 16.7452 26.9618 17.6694 26.9618 18.6413C26.9686 22.2731 24.3846 25.2946 20.9494 25.9732V30.461C22.0261 30.6998 22.9148 31.2659 23.5984 32.1968C24.0018 32.7493 24.3025 33.3631 24.6478 33.9531C24.846 34.2907 25.0614 34.6283 25.304 34.9421C25.5912 35.3104 25.9808 35.532 26.4594 35.5729C26.7704 35.6002 27.0712 35.5593 27.3651 35.4638C28.3393 35.1603 29.2041 34.6522 29.9902 34.0145C30.1817 33.8576 30.3526 33.6769 30.5098 33.4825C30.9952 32.8857 31.0362 32.2241 30.7149 31.5421C30.5303 31.1533 30.3013 30.7884 30.0894 30.4167C29.8262 29.9495 29.5356 29.496 29.2964 29.0151C28.7768 27.9614 28.6845 26.8633 29.0468 25.7379C29.3237 24.8785 29.7612 24.1044 30.3491 23.4156C30.961 22.6994 31.7198 22.2117 32.6393 21.9935C33.3468 21.823 34.068 21.8264 34.7892 21.84C35.2814 21.8503 35.7771 21.8503 36.2658 21.8162C36.7649 21.7821 37.2195 21.6081 37.551 21.2023C37.7561 20.9534 37.886 20.6635 37.9715 20.3566C38.1663 19.6439 38.1834 18.9175 38.1526 18.1877C38.1424 17.7137 38.0877 17.2363 37.9441 16.7759Z" fill="#5A5377"/>
<path d="M18.8746 26.0812C15.0532 25.7674 12.0316 22.5857 12.0214 18.6912C12.018 17.825 12.1718 16.9964 12.4418 16.2222L8.45632 14.1113C8.44948 14.1181 8.44264 14.1284 8.43923 14.1352C7.91968 14.6774 7.301 15.0662 6.57637 15.281C6.01238 15.4481 5.43131 15.5027 4.84682 15.5027C4.2384 15.5061 3.62656 15.4822 3.02156 15.4925C2.77204 15.4959 2.51568 15.5402 2.273 15.605C1.60647 15.7789 1.23732 16.2495 1.04249 16.8838C0.847657 17.5181 0.816894 18.1729 0.82373 18.8345C0.830566 19.4313 0.875001 20.0246 1.05958 20.5975C1.28859 21.3205 1.75687 21.7945 2.52594 21.9071C2.88142 21.9582 3.24374 21.965 3.60263 21.965C4.38196 21.9616 5.15786 21.8934 5.93719 22.006C6.77462 22.1287 7.53343 22.4391 8.17262 23.0017C9.01346 23.7418 9.58087 24.6625 9.95344 25.7094C10.2884 26.6473 10.3021 27.5919 9.9842 28.5399C9.79621 29.0958 9.51592 29.6039 9.21513 30.1052C8.9451 30.5588 8.67507 31.0157 8.42214 31.4795C8.2649 31.766 8.17262 32.0831 8.16236 32.4139C8.14527 32.9425 8.3777 33.3654 8.72293 33.7371C9.14677 34.194 9.6629 34.5317 10.1995 34.8386C10.7909 35.1762 11.3993 35.4797 12.0795 35.5956C12.746 35.7116 13.3237 35.5411 13.7646 35.0159C13.9594 34.7874 14.1269 34.5351 14.2807 34.2759C14.6294 33.6859 14.937 33.0789 15.2959 32.4992C15.918 31.5034 16.7828 30.8111 17.9381 30.5144C18.2491 30.436 18.5636 30.3848 18.8746 30.3541V26.0812Z" fill="#A9A8A9"/>
<path d="M34.8166 52.8462C34.7927 52.8905 34.7654 52.9212 34.738 52.9383C34.7107 52.9587 34.6765 52.969 34.6355 52.969C34.591 52.969 34.5466 52.9553 34.4953 52.9212C34.4441 52.8905 34.3859 52.853 34.3142 52.8155C34.2424 52.778 34.1603 52.7405 34.0681 52.7098C33.9758 52.6791 33.863 52.662 33.7365 52.662C33.6203 52.662 33.5177 52.6757 33.4323 52.703C33.3468 52.7302 33.2716 52.7678 33.2135 52.8189C33.1554 52.8701 33.111 52.928 33.0837 52.9962C33.0563 53.0644 33.0392 53.1429 33.0392 53.2247C33.0392 53.327 33.07 53.4157 33.1281 53.4873C33.1862 53.5589 33.2648 53.6169 33.3605 53.6681C33.4562 53.7158 33.569 53.7635 33.6921 53.8011C33.8151 53.8386 33.9416 53.8829 34.0715 53.9272C34.2014 53.9716 34.3278 54.0227 34.4543 54.0807C34.5774 54.1387 34.6867 54.2137 34.7859 54.3024C34.8816 54.391 34.9602 54.5001 35.0183 54.6297C35.0764 54.7593 35.1072 54.9196 35.1072 55.1038C35.1072 55.305 35.073 55.4925 35.0046 55.6699C34.9363 55.8472 34.8337 56.0006 34.7004 56.1302C34.5671 56.2598 34.403 56.3655 34.2116 56.4406C34.0202 56.5156 33.8015 56.5531 33.5519 56.5531C33.4118 56.5531 33.2682 56.5395 33.1315 56.5122C32.9948 56.4849 32.8615 56.444 32.735 56.3928C32.6085 56.3417 32.4889 56.2803 32.3761 56.2087C32.2633 56.1371 32.1676 56.0552 32.0787 55.9699L32.3248 55.571C32.3453 55.5437 32.3727 55.5198 32.4035 55.4993C32.4376 55.4789 32.4718 55.4686 32.5094 55.4686C32.5607 55.4686 32.6154 55.4891 32.6769 55.53C32.7384 55.5744 32.8068 55.6187 32.8922 55.6699C32.9743 55.7244 33.07 55.7687 33.1828 55.8097C33.2922 55.854 33.4255 55.8745 33.5793 55.8745C33.8151 55.8745 33.9997 55.8165 34.1296 55.704C34.2595 55.5914 34.3244 55.4311 34.3244 55.2197C34.3244 55.1038 34.2937 55.0083 34.2355 54.9332C34.1774 54.8582 34.0988 54.7968 34.0031 54.7457C33.9074 54.6945 33.7946 54.6536 33.6716 54.6195C33.5485 54.5854 33.422 54.5479 33.2956 54.5036C33.1691 54.4626 33.0426 54.4115 32.9196 54.3569C32.7965 54.2989 32.6872 54.2239 32.588 54.1318C32.4889 54.0398 32.4137 53.9238 32.3556 53.784C32.2975 53.6442 32.2667 53.4737 32.2667 53.2725C32.2667 53.1088 32.3009 52.9519 32.3659 52.795C32.4308 52.6416 32.5265 52.5052 32.6496 52.3858C32.7726 52.2665 32.9264 52.171 33.1076 52.0994C33.2887 52.0277 33.4972 51.9902 33.7331 51.9902C33.9963 51.9902 34.239 52.0312 34.4646 52.113C34.6867 52.1948 34.8747 52.3108 35.0354 52.4574L34.8166 52.8462Z" fill="#231F20"/>
<path d="M37.1136 53.2793C37.3494 53.2793 37.5613 53.3168 37.7562 53.3918C37.9476 53.4703 38.1151 53.576 38.2518 53.7158C38.3885 53.8556 38.4945 54.0261 38.5697 54.2273C38.6449 54.4285 38.6825 54.6536 38.6825 54.9026C38.6825 55.1549 38.6449 55.38 38.5697 55.5812C38.4945 55.7824 38.3885 55.9529 38.2518 56.0961C38.1151 56.2394 37.951 56.3485 37.7562 56.4235C37.5648 56.4985 37.3494 56.536 37.1136 56.536C36.8777 56.536 36.6624 56.4985 36.4641 56.4235C36.2693 56.3485 36.1052 56.2394 35.9685 56.0961C35.8318 55.9529 35.7258 55.7824 35.6506 55.5812C35.5754 55.38 35.5378 55.1515 35.5378 54.9026C35.5378 54.6536 35.5754 54.4285 35.6506 54.2273C35.7258 54.0261 35.8318 53.8556 35.9685 53.7158C36.1052 53.576 36.2727 53.4703 36.4641 53.3918C36.6624 53.3202 36.8777 53.2793 37.1136 53.2793ZM37.1136 55.9563C37.3768 55.9563 37.5716 55.8676 37.7015 55.6903C37.828 55.513 37.8895 55.2538 37.8895 54.9128C37.8895 54.5718 37.8245 54.3126 37.7015 54.1318C37.575 53.9511 37.3802 53.8624 37.1136 53.8624C36.8436 53.8624 36.6453 53.9511 36.5188 54.1318C36.3889 54.3126 36.3274 54.5718 36.3274 54.9128C36.3274 55.2504 36.3924 55.5096 36.5188 55.6903C36.6453 55.8676 36.847 55.9563 37.1136 55.9563Z" fill="#231F20"/>
<path d="M41.5366 53.9984C41.5127 54.0256 41.4921 54.0495 41.4716 54.0666C41.4477 54.0836 41.4169 54.0904 41.3759 54.0904C41.3349 54.0904 41.3007 54.0802 41.2597 54.0529C41.2221 54.029 41.1777 54.0018 41.1264 53.9745C41.0751 53.9438 41.0136 53.9165 40.9418 53.8926C40.8701 53.8688 40.7812 53.8585 40.6786 53.8585C40.5453 53.8585 40.4291 53.8824 40.3266 53.9336C40.224 53.9813 40.142 54.0495 40.0736 54.1416C40.0053 54.2337 39.9574 54.3428 39.9232 54.469C39.8891 54.5986 39.872 54.7418 39.872 54.9055C39.872 55.0726 39.8891 55.2226 39.9267 55.3556C39.9643 55.4852 40.0155 55.5977 40.0839 55.6864C40.1523 55.7751 40.2343 55.8433 40.33 55.891C40.4257 55.9354 40.5351 55.9592 40.6581 55.9592C40.7812 55.9592 40.8803 55.9456 40.9555 55.9149C41.0307 55.8842 41.0956 55.8535 41.1435 55.816C41.1948 55.7819 41.2392 55.7478 41.2802 55.7171C41.3178 55.6864 41.3623 55.6728 41.4101 55.6728C41.4716 55.6728 41.5195 55.6966 41.5503 55.7444L41.769 56.0206C41.6836 56.1195 41.5913 56.2013 41.4921 56.2696C41.393 56.3378 41.2905 56.3889 41.1845 56.4298C41.0786 56.4708 40.9692 56.498 40.8564 56.5151C40.7436 56.5321 40.6308 56.539 40.5214 56.539C40.3266 56.539 40.142 56.5014 39.9677 56.4298C39.7934 56.3548 39.643 56.2491 39.5131 56.1093C39.3832 55.9695 39.2806 55.7989 39.2054 55.5943C39.1302 55.3897 39.0927 55.1612 39.0927 54.9021C39.0927 54.6702 39.1268 54.4553 39.1918 54.2541C39.2601 54.0563 39.3558 53.8858 39.4857 53.7392C39.6156 53.5925 39.7763 53.48 39.9677 53.3982C40.1591 53.3163 40.3813 53.2754 40.6308 53.2754C40.8666 53.2754 41.0751 53.3129 41.2529 53.3879C41.4306 53.4664 41.5913 53.5755 41.7348 53.7153L41.5366 53.9984Z" fill="#231F20"/>
<path d="M43.1431 52.4056C43.1431 52.4704 43.1294 52.5318 43.1021 52.5898C43.0747 52.6478 43.0406 52.6989 42.9961 52.7432C42.9517 52.7876 42.9004 52.8217 42.8389 52.8455C42.7774 52.8728 42.7158 52.8865 42.6475 52.8865C42.5825 52.8865 42.5176 52.8728 42.4595 52.8455C42.4014 52.8217 42.3501 52.7876 42.3057 52.7432C42.2612 52.7023 42.2271 52.6512 42.2031 52.5898C42.1758 52.5318 42.1655 52.4704 42.1655 52.4056C42.1655 52.3374 42.1792 52.2726 42.2031 52.2147C42.2305 52.1567 42.2647 52.1055 42.3057 52.0612C42.3501 52.0169 42.4014 51.9828 42.4595 51.9555C42.5176 51.9316 42.5825 51.918 42.6475 51.918C42.7158 51.918 42.7808 51.9316 42.8389 51.9555C42.9004 51.9828 42.9517 52.0169 42.9961 52.0612C43.0406 52.1021 43.0747 52.1567 43.1021 52.2147C43.1294 52.2726 43.1431 52.3374 43.1431 52.4056ZM43.0371 53.3298V56.4979H42.2715V53.3298H43.0371Z" fill="#231F20"/>
<path d="M45.17 53.2793C45.3717 53.2793 45.5563 53.31 45.7238 53.3748C45.8913 53.4396 46.0382 53.5317 46.1613 53.6544C46.2843 53.7772 46.3766 53.9272 46.4484 54.1046C46.5168 54.2819 46.5509 54.4865 46.5509 54.715C46.5509 54.8309 46.5407 54.9094 46.5133 54.9469C46.4894 54.9878 46.4416 55.0083 46.3698 55.0083H44.4044C44.4181 55.172 44.4454 55.3118 44.4898 55.4311C44.5343 55.5505 44.5958 55.646 44.671 55.7244C44.7462 55.7994 44.8351 55.8574 44.9342 55.8983C45.0367 55.9359 45.1495 55.9563 45.2726 55.9563C45.3956 55.9563 45.5016 55.9427 45.5939 55.912C45.6827 55.8813 45.7614 55.8506 45.8297 55.8165C45.8981 55.7824 45.9562 55.7483 46.0075 55.721C46.0587 55.6937 46.1066 55.6801 46.1544 55.6801C46.2194 55.6801 46.2672 55.704 46.298 55.7517L46.5168 56.0279C46.4313 56.1268 46.3356 56.2087 46.2331 56.2769C46.1271 56.3451 46.0177 56.3962 45.9015 56.4372C45.7853 56.4781 45.6691 56.5054 45.5529 56.5224C45.4332 56.5395 45.3204 56.5463 45.2076 56.5463C44.9855 56.5463 44.7804 56.5088 44.5924 56.4372C44.4044 56.3621 44.2369 56.2564 44.0968 56.1132C43.9566 55.9699 43.8472 55.7926 43.7652 55.5812C43.6832 55.3698 43.6456 55.1242 43.6456 54.848C43.6456 54.6297 43.6797 54.4285 43.7515 54.2376C43.8199 54.0466 43.9224 53.8829 44.0523 53.7397C44.1822 53.5999 44.3429 53.4873 44.5309 53.4055C44.7188 53.3236 44.9342 53.2793 45.17 53.2793ZM45.1871 53.8249C44.9649 53.8249 44.7906 53.8897 44.6642 54.0159C44.5377 54.1387 44.4591 54.3194 44.4215 54.5513H45.8639C45.8639 54.4524 45.8502 54.3603 45.8229 54.2717C45.7955 54.183 45.7545 54.108 45.6964 54.0432C45.6417 53.9784 45.57 53.9272 45.4845 53.8863C45.399 53.8454 45.2999 53.8249 45.1871 53.8249Z" fill="#231F20"/>
<path d="M48.1437 56.5452C47.8669 56.5452 47.6549 56.4667 47.508 56.3133C47.361 56.1598 47.2858 55.9416 47.2858 55.6687V53.8988H46.9611C46.92 53.8988 46.8859 53.8852 46.8551 53.8579C46.8278 53.8306 46.8141 53.7897 46.8141 53.7386V53.435L47.3234 53.3532L47.484 52.487C47.4943 52.4461 47.5148 52.412 47.5421 52.3915C47.5695 52.3711 47.6071 52.3574 47.6549 52.3574H48.0514V53.3532H48.8991V53.8954H48.0514V55.6108C48.0514 55.7097 48.0754 55.7881 48.1232 55.8427C48.1711 55.8972 48.2394 55.9245 48.3215 55.9245C48.3693 55.9245 48.4069 55.9177 48.4411 55.9074C48.4753 55.8972 48.5026 55.8836 48.5265 55.8733C48.5505 55.8597 48.571 55.8495 48.5881 55.8358C48.6086 55.8256 48.6257 55.8188 48.6462 55.8188C48.6701 55.8188 48.6872 55.8256 48.7009 55.8358C48.7145 55.8461 48.7316 55.8665 48.7453 55.887L48.9743 56.2587C48.8615 56.3508 48.7351 56.4224 48.5915 56.4701C48.4479 56.5213 48.2975 56.5452 48.1437 56.5452Z" fill="#231F20"/>
<path d="M50.5433 57.3673C50.5193 57.4218 50.492 57.4628 50.4544 57.49C50.4168 57.5173 50.3621 57.531 50.2903 57.531H49.7195L50.3143 56.2624L49.0291 53.3296H49.7024C49.7605 53.3296 49.8084 53.3432 49.8426 53.3705C49.8767 53.4012 49.9007 53.4319 49.9178 53.4694L50.5911 55.1131C50.6321 55.2257 50.6663 55.3382 50.6937 55.4473C50.7107 55.3893 50.7278 55.3348 50.7483 55.2768C50.7689 55.2222 50.7894 55.1643 50.8133 55.1097L51.4491 53.4694C51.4661 53.4285 51.4935 53.3944 51.5311 53.3671C51.5687 53.3398 51.6131 53.3262 51.6576 53.3262H52.2694L50.5433 57.3673Z" fill="#231F20"/>
<path d="M55.4037 53.2793C55.6396 53.2793 55.8549 53.3168 56.0463 53.3918C56.2412 53.4703 56.4052 53.576 56.542 53.7158C56.6787 53.8556 56.7846 54.0261 56.8598 54.2273C56.935 54.4285 56.9726 54.6536 56.9726 54.9026C56.9726 55.1549 56.935 55.38 56.8598 55.5812C56.7846 55.7824 56.6787 55.9529 56.542 56.0961C56.4052 56.2394 56.2412 56.3485 56.0463 56.4235C55.8549 56.4985 55.6396 56.536 55.4037 56.536C55.1679 56.536 54.9526 56.4985 54.7577 56.4235C54.5629 56.3485 54.3988 56.2394 54.2621 56.0961C54.1254 55.9529 54.0194 55.7824 53.9442 55.5812C53.869 55.38 53.8314 55.1515 53.8314 54.9026C53.8314 54.6536 53.869 54.4285 53.9442 54.2273C54.0194 54.0261 54.1254 53.8556 54.2621 53.7158C54.3988 53.576 54.5629 53.4703 54.7577 53.3918C54.9526 53.3202 55.1679 53.2793 55.4037 53.2793ZM55.4037 55.9563C55.6669 55.9563 55.8652 55.8676 55.9916 55.6903C56.1181 55.513 56.1831 55.2538 56.1831 54.9128C56.1831 54.5718 56.1215 54.3126 55.9916 54.1318C55.8652 53.9511 55.6703 53.8624 55.4037 53.8624C55.1371 53.8624 54.9389 53.9511 54.809 54.1318C54.6791 54.3126 54.6176 54.5718 54.6176 54.9128C54.6176 55.2504 54.6825 55.5096 54.809 55.6903C54.9389 55.8676 55.1371 55.9563 55.4037 55.9563Z" fill="#231F20"/>
<path d="M57.7007 56.497V53.9018L57.4273 53.8575C57.3657 53.8438 57.3213 53.8234 57.2837 53.7961C57.2495 53.7654 57.229 53.7211 57.229 53.6665V53.3562H57.7007V53.1209C57.7007 52.9401 57.728 52.7764 57.7827 52.6332C57.8374 52.49 57.916 52.3672 58.0186 52.2649C58.1211 52.1626 58.2442 52.0876 58.3912 52.033C58.5381 51.9819 58.7022 51.9512 58.8868 51.9512C59.0338 51.9512 59.1705 51.9716 59.2969 52.0091L59.2799 52.3911C59.2764 52.4218 59.2696 52.4422 59.2559 52.4593C59.2423 52.4763 59.2218 52.49 59.1978 52.5002C59.1739 52.5104 59.1466 52.5139 59.1158 52.5207C59.085 52.5241 59.0543 52.5241 59.0167 52.5241C58.9278 52.5241 58.8458 52.5343 58.774 52.5514C58.7022 52.5718 58.6441 52.6059 58.5928 52.6537C58.545 52.7014 58.5074 52.7662 58.48 52.8446C58.4527 52.9231 58.4424 53.022 58.4424 53.1379V53.3494H59.2696V53.8916H58.4698V56.4867H57.7007V56.497Z" fill="#231F20"/>
<path d="M60.7565 52.0347H61.4538C61.5255 52.0347 61.5871 52.0517 61.6349 52.0858C61.6828 52.1199 61.717 52.1642 61.734 52.2222L62.4963 54.8924C62.5134 54.9572 62.527 55.0288 62.5441 55.1073C62.5578 55.1823 62.5749 55.2675 62.592 55.3528C62.6091 55.2675 62.6262 55.1857 62.6467 55.1073C62.6672 55.0288 62.6877 54.9572 62.7116 54.8924L63.5901 52.2222C63.6072 52.1745 63.6379 52.1301 63.6892 52.0926C63.737 52.0517 63.7986 52.0347 63.8669 52.0347H64.113C64.1848 52.0347 64.2429 52.0517 64.2874 52.0858C64.3318 52.1233 64.366 52.1677 64.3899 52.2222L65.2649 54.8924C65.3094 55.022 65.347 55.1686 65.3846 55.3323C65.4119 55.172 65.4392 55.022 65.4734 54.8924L66.2357 52.2222C66.2493 52.1711 66.2767 52.1267 66.328 52.0892C66.3792 52.0517 66.4407 52.0312 66.5091 52.0312H67.162L65.7708 56.4952H65.0188L64.0413 53.4465C64.0276 53.4056 64.0139 53.3646 64.0002 53.3203C63.99 53.276 63.9763 53.2282 63.9626 53.1771C63.9524 53.2282 63.9387 53.276 63.9285 53.3203C63.9148 53.3646 63.9011 53.4056 63.8909 53.4465L62.903 56.4952H62.1476L60.7565 52.0347Z" fill="#231F20"/>
<path d="M68.6147 53.2793C68.8505 53.2793 69.0659 53.3168 69.2573 53.3918C69.4487 53.4703 69.6162 53.576 69.7529 53.7158C69.8896 53.8556 69.9956 54.0261 70.0708 54.2273C70.1426 54.4285 70.1802 54.6536 70.1802 54.9026C70.1802 55.1549 70.1426 55.38 70.0708 55.5812C69.9956 55.7824 69.8896 55.9529 69.7529 56.0961C69.6162 56.2394 69.4487 56.3485 69.2573 56.4235C69.0659 56.4985 68.8505 56.536 68.6147 56.536C68.3754 56.536 68.1635 56.4985 67.9687 56.4235C67.7738 56.3485 67.6098 56.2394 67.473 56.0961C67.3363 55.9529 67.2269 55.7824 67.1552 55.5812C67.08 55.38 67.0424 55.1515 67.0424 54.9026C67.0424 54.6536 67.08 54.4285 67.1552 54.2273C67.2304 54.0261 67.3363 53.8556 67.473 53.7158C67.6098 53.576 67.7738 53.4703 67.9687 53.3918C68.1601 53.3202 68.3754 53.2793 68.6147 53.2793ZM68.6147 55.9563C68.8779 55.9563 69.0727 55.8676 69.1992 55.6903C69.3256 55.513 69.3906 55.2538 69.3906 54.9128C69.3906 54.5718 69.3256 54.3126 69.1992 54.1318C69.0727 53.9511 68.8779 53.8624 68.6147 53.8624C68.3447 53.8624 68.1464 53.9511 68.0199 54.1318C67.8935 54.3126 67.8285 54.5718 67.8285 54.9128C67.8285 55.2504 67.8935 55.5096 68.0199 55.6903C68.1464 55.8676 68.3447 55.9563 68.6147 55.9563Z" fill="#231F20"/>
<path d="M70.7646 56.498V53.33H71.2329C71.332 53.33 71.397 53.3743 71.4278 53.4664L71.479 53.7017C71.5337 53.6403 71.5918 53.5823 71.6534 53.5312C71.7149 53.48 71.7798 53.4357 71.8482 53.3982C71.9165 53.3606 71.9917 53.3334 72.0704 53.3095C72.149 53.289 72.2378 53.2788 72.3301 53.2788C72.5318 53.2788 72.6959 53.3334 72.8258 53.4391C72.9556 53.5482 73.0513 53.6914 73.1129 53.8688C73.1607 53.7631 73.2257 53.6744 73.2975 53.5994C73.3726 53.5243 73.4513 53.463 73.5401 53.4152C73.629 53.3675 73.7247 53.3334 73.8238 53.3095C73.9264 53.2856 74.0255 53.2754 74.128 53.2754C74.3024 53.2754 74.4562 53.3027 74.5929 53.3572C74.7296 53.4118 74.8424 53.4868 74.9381 53.5925C75.0304 53.6948 75.1022 53.821 75.1501 53.9677C75.1979 54.1177 75.2218 54.2882 75.2218 54.4792V56.4946H74.4562V54.4792C74.4562 54.278 74.4117 54.1245 74.3263 54.0222C74.2374 53.9233 74.1075 53.8688 73.9366 53.8688C73.858 53.8688 73.7862 53.8824 73.7179 53.9063C73.6495 53.9336 73.5914 53.9711 73.5401 54.0222C73.4889 54.0734 73.4513 54.1348 73.4205 54.2098C73.3897 54.2848 73.3761 54.3735 73.3761 54.4724V56.4878H72.607V54.4724C72.607 54.2609 72.566 54.1075 72.4771 54.0086C72.3917 53.9131 72.2686 53.8619 72.1011 53.8619C71.9883 53.8619 71.8858 53.8892 71.7901 53.9438C71.6944 53.9984 71.6055 54.0734 71.5235 54.1689V56.4878H70.7646V56.498Z" fill="#231F20"/>
<path d="M77.2966 53.2793C77.4983 53.2793 77.6794 53.31 77.8503 53.3748C78.0178 53.4396 78.1648 53.5317 78.2879 53.6544C78.4109 53.7772 78.5032 53.9272 78.575 54.1046C78.6433 54.2819 78.6775 54.4865 78.6775 54.715C78.6775 54.8309 78.6639 54.9094 78.6399 54.9469C78.616 54.9878 78.5682 55.0083 78.4998 55.0083H76.5344C76.5446 55.172 76.5754 55.3118 76.6198 55.4311C76.6643 55.5505 76.7258 55.646 76.801 55.7244C76.8762 55.7994 76.9617 55.8574 77.0642 55.8983C77.1667 55.9359 77.2795 55.9563 77.4026 55.9563C77.5256 55.9563 77.6316 55.9427 77.7205 55.912C77.8128 55.8813 77.888 55.8506 77.9563 55.8165C78.0247 55.7824 78.0828 55.7483 78.1306 55.721C78.1819 55.6937 78.2298 55.6801 78.2776 55.6801C78.3391 55.6801 78.3904 55.704 78.4212 55.7517L78.6399 56.0279C78.5545 56.1268 78.4622 56.2087 78.3562 56.2769C78.2503 56.3451 78.1409 56.3962 78.0281 56.4372C77.9119 56.4781 77.7957 56.5054 77.6794 56.5224C77.5598 56.5395 77.447 56.5463 77.3342 56.5463C77.1155 56.5463 76.907 56.5088 76.719 56.4372C76.531 56.3621 76.3669 56.2564 76.2268 56.1132C76.0866 55.9699 75.9738 55.7926 75.8952 55.5812C75.8166 55.3698 75.7756 55.1242 75.7756 54.848C75.7756 54.6297 75.8132 54.4285 75.8815 54.2376C75.9533 54.0466 76.0524 53.8829 76.1857 53.7397C76.3156 53.5999 76.4763 53.4873 76.6643 53.4055C76.8488 53.3236 77.0608 53.2793 77.2966 53.2793ZM77.3137 53.8249C77.0915 53.8249 76.9172 53.8897 76.7907 54.0159C76.6643 54.1387 76.5857 54.3194 76.5481 54.5513H77.9905C77.9905 54.4524 77.9768 54.3603 77.9495 54.2717C77.9221 54.183 77.8811 54.108 77.823 54.0432C77.7683 53.9784 77.6965 53.9272 77.6111 53.8863C77.5256 53.8454 77.4265 53.8249 77.3137 53.8249Z" fill="#231F20"/>
<path d="M79.2518 56.498V53.33H79.72C79.8192 53.33 79.8841 53.3743 79.9149 53.4664L79.9661 53.7153C80.0311 53.6505 80.096 53.5891 80.1678 53.5346C80.2396 53.4834 80.3148 53.4357 80.3934 53.3947C80.472 53.3572 80.5575 53.3265 80.6498 53.3061C80.7421 53.2856 80.8378 53.2754 80.9471 53.2754C81.1215 53.2754 81.2753 53.3061 81.4086 53.3641C81.5419 53.422 81.6547 53.5039 81.7436 53.6096C81.8324 53.7153 81.9008 53.8415 81.9486 53.9881C81.9965 54.1348 82.017 54.295 82.017 54.4758V56.4912H81.2514V54.4758C81.2514 54.2814 81.2069 54.1314 81.118 54.0256C81.0292 53.9199 80.8925 53.8654 80.7113 53.8654C80.578 53.8654 80.4549 53.8961 80.3387 53.954C80.2259 54.0154 80.1131 54.0938 80.0106 54.1996V56.4912H79.2518V56.498Z" fill="#231F20"/>
<path d="M87.1851 52.0332V52.6948H85.1992V53.9327H86.7647V54.5704H85.1992V55.8322H87.1851V56.4972H84.3618V52.0332H87.1851Z" fill="#231F20"/>
<path d="M87.7354 56.498V53.33H88.2037C88.3028 53.33 88.3678 53.3743 88.3985 53.4664L88.4498 53.7153C88.5147 53.6505 88.5831 53.5891 88.6515 53.5346C88.7232 53.4834 88.7984 53.4357 88.8771 53.3947C88.9557 53.3572 89.0411 53.3265 89.1334 53.3061C89.2257 53.2856 89.3248 53.2754 89.4308 53.2754C89.6051 53.2754 89.7589 53.3061 89.8922 53.3641C90.0255 53.422 90.1383 53.5039 90.2272 53.6096C90.3161 53.7153 90.3844 53.8415 90.4323 53.9881C90.4801 54.1348 90.5006 54.295 90.5006 54.4758V56.4912H89.7384V54.4758C89.7384 54.2814 89.694 54.1314 89.6051 54.0256C89.5162 53.9199 89.3829 53.8654 89.1984 53.8654C89.065 53.8654 88.942 53.8961 88.8258 53.954C88.7096 54.0154 88.6002 54.0938 88.4976 54.1996V56.4912H87.7354V56.498Z" fill="#231F20"/>
<path d="M92.3874 53.2715C92.5207 53.2715 92.6506 53.2851 92.7703 53.3124C92.8899 53.3397 92.9993 53.3806 93.0984 53.4352H94.011V53.7182C94.011 53.8069 93.9563 53.8649 93.847 53.8819L93.5633 53.9365C93.5838 53.991 93.6009 54.0456 93.6111 54.107C93.6214 54.1684 93.6282 54.2298 93.6282 54.2945C93.6282 54.4514 93.5974 54.5912 93.5325 54.7174C93.471 54.8436 93.3821 54.9527 93.2727 55.0414C93.1599 55.13 93.03 55.1982 92.8796 55.246C92.7258 55.2937 92.5652 55.3176 92.3909 55.3176C92.2712 55.3176 92.155 55.3074 92.0422 55.2835C91.9431 55.3449 91.8952 55.4097 91.8952 55.4847C91.8952 55.5461 91.926 55.5938 91.9841 55.6245C92.0422 55.6552 92.1208 55.6757 92.2165 55.6893C92.3122 55.703 92.425 55.7098 92.5481 55.7132C92.6711 55.7166 92.801 55.7234 92.9309 55.7336C93.0608 55.7439 93.1873 55.7609 93.3103 55.7882C93.4334 55.8155 93.5427 55.853 93.6419 55.911C93.7376 55.969 93.8196 56.044 93.8743 56.1361C93.9324 56.2315 93.9632 56.3543 93.9632 56.5044C93.9632 56.6442 93.929 56.7806 93.8606 56.9136C93.7923 57.0466 93.6931 57.1625 93.5598 57.2648C93.43 57.3671 93.2693 57.449 93.0779 57.5138C92.8865 57.5752 92.6677 57.6093 92.425 57.6093C92.1858 57.6093 91.9773 57.5854 91.7995 57.5411C91.6218 57.4967 91.4748 57.4319 91.3552 57.3569C91.239 57.2785 91.1501 57.1932 91.092 57.0909C91.0339 56.9886 91.0065 56.8829 91.0065 56.7772C91.0065 56.6305 91.051 56.5044 91.1398 56.4055C91.2287 56.3032 91.3518 56.2247 91.5056 56.1633C91.4235 56.119 91.3552 56.061 91.3073 55.9894C91.2595 55.9178 91.2321 55.8223 91.2321 55.7064C91.2321 55.6586 91.239 55.6109 91.2561 55.5597C91.2731 55.5086 91.2971 55.4608 91.3313 55.4097C91.3654 55.3619 91.4064 55.3142 91.4611 55.2699C91.5158 55.2255 91.5739 55.1846 91.6457 55.1505C91.4851 55.0653 91.3586 54.9493 91.2663 54.8027C91.174 54.6594 91.1296 54.4889 91.1296 54.298C91.1296 54.1411 91.1603 54.0013 91.2219 53.8751C91.2868 53.7489 91.3723 53.6398 91.4851 53.5511C91.5979 53.4625 91.7312 53.3942 91.8816 53.3465C92.0388 53.2988 92.2063 53.2715 92.3874 53.2715ZM93.2488 56.6374C93.2488 56.576 93.2317 56.5248 93.1941 56.4873C93.1565 56.4498 93.1052 56.4191 93.0437 56.3952C92.9822 56.3748 92.9036 56.3577 92.8181 56.3475C92.7327 56.3373 92.6404 56.3304 92.5447 56.327C92.449 56.3202 92.3498 56.3168 92.2473 56.3134C92.1448 56.31 92.0456 56.2997 91.9499 56.2895C91.8645 56.3373 91.7961 56.3918 91.7448 56.4566C91.6936 56.5214 91.6662 56.5964 91.6662 56.6783C91.6662 56.7328 91.6799 56.784 91.7072 56.8352C91.7346 56.8829 91.779 56.9272 91.8405 56.9613C91.9021 56.9954 91.9807 57.0227 92.0764 57.0432C92.1755 57.0636 92.2917 57.0739 92.4319 57.0739C92.572 57.0739 92.6951 57.0636 92.801 57.0398C92.9036 57.0159 92.989 56.9886 93.0574 56.9511C93.1257 56.9136 93.1736 56.8693 93.2044 56.8147C93.2351 56.7567 93.2488 56.6987 93.2488 56.6374ZM92.3874 54.8334C92.4831 54.8334 92.5652 54.8197 92.6335 54.7958C92.7053 54.7686 92.7634 54.7345 92.8079 54.6901C92.8557 54.6458 92.8899 54.5912 92.9138 54.5264C92.9377 54.4616 92.9514 54.3934 92.9514 54.3184C92.9514 54.1615 92.9036 54.0388 92.8113 53.9467C92.719 53.8546 92.5788 53.8069 92.3909 53.8069C92.2029 53.8069 92.0627 53.8512 91.967 53.9467C91.8747 54.0388 91.8269 54.1615 91.8269 54.3184C91.8269 54.3934 91.8405 54.4616 91.8645 54.5264C91.8884 54.5912 91.9226 54.6458 91.9704 54.6935C92.0183 54.7379 92.0764 54.7754 92.1482 54.8027C92.2131 54.8231 92.2952 54.8334 92.3874 54.8334Z" fill="#231F20"/>
<path d="M95.3988 52.4056C95.3988 52.4704 95.3851 52.5318 95.3578 52.5898C95.3304 52.6478 95.2962 52.6989 95.2518 52.7432C95.2074 52.7876 95.1527 52.8217 95.0912 52.8455C95.0296 52.8728 94.9647 52.8865 94.8963 52.8865C94.828 52.8865 94.7664 52.8728 94.7083 52.8455C94.6502 52.8217 94.5989 52.7876 94.5545 52.7432C94.5101 52.7023 94.4759 52.6512 94.452 52.5898C94.428 52.5318 94.4144 52.4704 94.4144 52.4056C94.4144 52.3374 94.428 52.2726 94.452 52.2147C94.4759 52.1567 94.5135 52.1055 94.5545 52.0612C94.5989 52.0169 94.6502 51.9828 94.7083 51.9555C94.7664 51.9316 94.828 51.918 94.8963 51.918C94.9647 51.918 95.0296 51.9316 95.0912 51.9555C95.1527 51.9828 95.2074 52.0169 95.2518 52.0612C95.2962 52.1021 95.3304 52.1567 95.3578 52.2147C95.3885 52.2726 95.3988 52.3374 95.3988 52.4056ZM95.2962 53.3298V56.4979H94.5203V53.3298H95.2962Z" fill="#231F20"/>
<path d="M96.0756 56.498V53.33H96.5438C96.643 53.33 96.7079 53.3743 96.7387 53.4664L96.79 53.7153C96.8549 53.6505 96.9198 53.5891 96.9916 53.5346C97.0634 53.4834 97.1386 53.4357 97.2172 53.3947C97.2958 53.3572 97.3813 53.3265 97.4701 53.3061C97.5624 53.2856 97.6616 53.2754 97.7675 53.2754C97.9418 53.2754 98.0957 53.3061 98.229 53.3641C98.3623 53.422 98.4751 53.5039 98.5673 53.6096C98.6562 53.7153 98.7246 53.8415 98.769 53.9881C98.8169 54.1348 98.8374 54.295 98.8374 54.4758V56.4912H98.0717V54.4758C98.0717 54.2814 98.0273 54.1314 97.9384 54.0256C97.8496 53.9199 97.7162 53.8654 97.5317 53.8654C97.3984 53.8654 97.2753 53.8961 97.1625 53.954C97.0463 54.0154 96.9369 54.0938 96.8344 54.1996V56.4912H96.0756V56.498Z" fill="#231F20"/>
<path d="M100.916 53.2793C101.114 53.2793 101.298 53.31 101.469 53.3748C101.64 53.4396 101.784 53.5317 101.907 53.6544C102.026 53.7772 102.126 53.9272 102.194 54.1046C102.262 54.2819 102.296 54.4865 102.296 54.715C102.296 54.8309 102.283 54.9094 102.259 54.9469C102.235 54.9878 102.187 55.0083 102.115 55.0083H100.15C100.164 55.172 100.191 55.3118 100.235 55.4311C100.28 55.5505 100.341 55.646 100.417 55.7244C100.492 55.7994 100.577 55.8574 100.68 55.8983C100.782 55.9359 100.895 55.9563 101.018 55.9563C101.141 55.9563 101.247 55.9427 101.339 55.912C101.428 55.8813 101.507 55.8506 101.575 55.8165C101.64 55.7824 101.702 55.7483 101.75 55.721C101.801 55.6937 101.849 55.6801 101.897 55.6801C101.962 55.6801 102.009 55.704 102.04 55.7517L102.259 56.0279C102.173 56.1268 102.078 56.2087 101.975 56.2769C101.869 56.3451 101.76 56.3962 101.647 56.4372C101.531 56.4781 101.415 56.5054 101.298 56.5224C101.179 56.5395 101.063 56.5463 100.953 56.5463C100.734 56.5463 100.526 56.5088 100.338 56.4372C100.147 56.3621 99.9824 56.2564 99.8423 56.1132C99.7022 55.9699 99.5928 55.7926 99.5142 55.5812C99.4321 55.3698 99.3911 55.1242 99.3911 54.848C99.3911 54.6297 99.4253 54.4285 99.4971 54.2376C99.5689 54.0466 99.668 53.8829 99.7979 53.7397C99.9278 53.5999 100.088 53.4873 100.276 53.4055C100.468 53.3236 100.68 53.2793 100.916 53.2793ZM100.933 53.8249C100.71 53.8249 100.536 53.8897 100.41 54.0159C100.283 54.1387 100.205 54.3194 100.17 54.5513H101.613C101.613 54.4524 101.599 54.3603 101.572 54.2717C101.545 54.183 101.503 54.108 101.445 54.0432C101.391 53.9784 101.319 53.9272 101.233 53.8863C101.145 53.8454 101.045 53.8249 100.933 53.8249Z" fill="#231F20"/>
<path d="M104.221 53.2793C104.423 53.2793 104.607 53.31 104.775 53.3748C104.942 53.4396 105.089 53.5317 105.212 53.6544C105.332 53.7772 105.427 53.9272 105.499 54.1046C105.568 54.2819 105.602 54.4865 105.602 54.715C105.602 54.8309 105.592 54.9094 105.564 54.9469C105.54 54.9878 105.492 55.0083 105.424 55.0083H103.459C103.472 55.172 103.5 55.3118 103.544 55.4311C103.589 55.5505 103.65 55.646 103.725 55.7244C103.8 55.7994 103.886 55.8574 103.988 55.8983C104.091 55.9359 104.204 55.9563 104.327 55.9563C104.45 55.9563 104.556 55.9427 104.648 55.912C104.74 55.8813 104.816 55.8506 104.884 55.8165C104.952 55.7824 105.01 55.7483 105.058 55.721C105.11 55.6937 105.157 55.6801 105.205 55.6801C105.27 55.6801 105.318 55.704 105.349 55.7517L105.568 56.0279C105.482 56.1268 105.386 56.2087 105.284 56.2769C105.178 56.3451 105.069 56.3962 104.956 56.4372C104.843 56.4781 104.727 56.5054 104.607 56.5224C104.487 56.5395 104.371 56.5463 104.262 56.5463C104.04 56.5463 103.835 56.5088 103.647 56.4372C103.459 56.3621 103.291 56.2564 103.151 56.1132C103.011 55.9699 102.898 55.7926 102.819 55.5812C102.741 55.3698 102.7 55.1242 102.7 54.848C102.7 54.6297 102.734 54.4285 102.806 54.2376C102.874 54.0466 102.977 53.8829 103.107 53.7397C103.24 53.5999 103.397 53.4873 103.585 53.4055C103.773 53.3236 103.985 53.2793 104.221 53.2793ZM104.238 53.8249C104.016 53.8249 103.841 53.8897 103.715 54.0159C103.589 54.1387 103.51 54.3194 103.472 54.5513H104.915C104.915 54.4524 104.901 54.3603 104.874 54.2717C104.846 54.183 104.805 54.108 104.747 54.0432C104.693 53.9784 104.621 53.9272 104.535 53.8863C104.45 53.8454 104.351 53.8249 104.238 53.8249Z" fill="#231F20"/>
<path d="M106.173 56.4975V53.3295H106.62C106.699 53.3295 106.754 53.3431 106.784 53.3704C106.815 53.3977 106.836 53.4488 106.846 53.5204L106.887 53.8785C106.99 53.6875 107.106 53.5409 107.246 53.4318C107.383 53.3226 107.543 53.2715 107.728 53.2715C107.875 53.2715 107.991 53.3022 108.08 53.367L108.032 53.9399C108.022 53.9774 108.005 54.0047 107.988 54.0183C107.967 54.032 107.94 54.0422 107.909 54.0422C107.878 54.0422 107.834 54.0388 107.769 54.0285C107.707 54.0149 107.649 54.0115 107.591 54.0115C107.506 54.0115 107.43 54.0251 107.366 54.049C107.297 54.0729 107.239 54.1104 107.188 54.1547C107.137 54.2025 107.089 54.257 107.051 54.3252C107.01 54.39 106.972 54.4651 106.938 54.5503V56.5009H106.173V56.4975Z" fill="#231F20"/>
<path d="M110.418 53.9467C110.397 53.9808 110.377 54.0013 110.353 54.0149C110.329 54.0286 110.302 54.0354 110.267 54.0354C110.23 54.0354 110.192 54.0252 110.148 54.0047C110.107 53.9842 110.056 53.9604 110.001 53.9365C109.946 53.9126 109.881 53.8888 109.809 53.8683C109.738 53.8478 109.656 53.8376 109.557 53.8376C109.406 53.8376 109.286 53.8683 109.201 53.9331C109.116 53.9979 109.071 54.0797 109.071 54.182C109.071 54.2502 109.095 54.3082 109.136 54.3526C109.181 54.4003 109.239 54.4412 109.314 54.4753C109.386 54.5094 109.471 54.5435 109.563 54.5708C109.656 54.5981 109.751 54.6288 109.847 54.6629C109.943 54.6936 110.035 54.7311 110.131 54.7754C110.223 54.8163 110.308 54.8709 110.38 54.9357C110.452 55.0005 110.514 55.0789 110.555 55.1676C110.599 55.2597 110.62 55.3654 110.62 55.495C110.62 55.645 110.592 55.7883 110.538 55.9144C110.483 56.044 110.401 56.1531 110.295 56.2486C110.189 56.3407 110.056 56.4157 109.895 56.4669C109.738 56.518 109.557 56.5453 109.348 56.5453C109.239 56.5453 109.133 56.5351 109.027 56.5146C108.924 56.4942 108.822 56.4669 108.726 56.4362C108.63 56.3987 108.541 56.3578 108.459 56.3134C108.377 56.2657 108.305 56.2145 108.244 56.16L108.422 55.8701C108.446 55.836 108.473 55.8087 108.504 55.7882C108.534 55.7712 108.572 55.761 108.62 55.761C108.668 55.761 108.712 55.7746 108.757 55.8019C108.798 55.8292 108.849 55.8565 108.904 55.8871C108.958 55.9178 109.023 55.9485 109.098 55.9724C109.174 55.9997 109.269 56.0133 109.386 56.0133C109.478 56.0133 109.553 56.0031 109.618 55.9826C109.683 55.9588 109.738 55.9315 109.779 55.8974C109.82 55.8633 109.854 55.8224 109.871 55.7746C109.891 55.7303 109.902 55.6791 109.902 55.6314C109.902 55.5564 109.881 55.4984 109.837 55.4506C109.792 55.4029 109.734 55.362 109.659 55.3279C109.587 55.2938 109.502 55.2631 109.41 55.2358C109.314 55.2085 109.218 55.1778 109.122 55.1437C109.023 55.1096 108.928 55.0721 108.835 55.0278C108.743 54.9834 108.658 54.9289 108.586 54.8607C108.514 54.7925 108.456 54.7106 108.411 54.6117C108.367 54.5128 108.343 54.3935 108.343 54.2537C108.343 54.1241 108.367 54.0013 108.422 53.8819C108.473 53.766 108.548 53.6637 108.647 53.575C108.75 53.4864 108.873 53.4182 109.023 53.3636C109.174 53.3124 109.345 53.2852 109.543 53.2852C109.762 53.2852 109.96 53.3193 110.141 53.3943C110.319 53.4659 110.469 53.5614 110.589 53.6773L110.418 53.9467Z" fill="#231F20"/>
<path d="M110.797 25.9989C110.561 25.9989 110.343 25.958 110.144 25.8762C109.946 25.7943 109.772 25.6818 109.625 25.5351C109.478 25.3885 109.365 25.218 109.283 25.0202C109.201 24.8224 109.163 24.6042 109.163 24.3723C109.163 24.137 109.204 23.9187 109.286 23.7209C109.368 23.5231 109.481 23.3492 109.628 23.206C109.775 23.0593 109.95 22.9468 110.148 22.865C110.346 22.7831 110.565 22.7422 110.797 22.7422C111.023 22.7422 111.238 22.7831 111.433 22.865C111.631 22.9468 111.802 23.0593 111.953 23.206C112.103 23.3526 112.219 23.5231 112.301 23.7209C112.387 23.9187 112.428 24.1336 112.428 24.3689C112.428 24.6042 112.387 24.819 112.305 25.0168C112.223 25.2146 112.11 25.3885 111.963 25.5317C111.816 25.6784 111.642 25.7909 111.443 25.8728C111.248 25.958 111.03 25.9989 110.797 25.9989ZM110.797 25.7773C110.989 25.7773 111.17 25.7432 111.337 25.675C111.505 25.6068 111.655 25.5079 111.782 25.3817C111.908 25.2555 112.011 25.1055 112.082 24.935C112.154 24.7644 112.192 24.5769 112.192 24.3723C112.192 24.1779 112.158 23.9971 112.089 23.83C112.021 23.6629 111.925 23.5129 111.799 23.3833C111.676 23.2537 111.529 23.1514 111.358 23.0798C111.187 23.0082 111.002 22.9707 110.801 22.9707C110.599 22.9707 110.411 23.0048 110.244 23.073C110.073 23.1412 109.926 23.2401 109.803 23.3663C109.676 23.4924 109.58 23.6425 109.512 23.813C109.444 23.9835 109.409 24.1711 109.409 24.3757C109.409 24.5701 109.444 24.7508 109.512 24.9213C109.58 25.0918 109.676 25.2419 109.803 25.368C109.929 25.4976 110.076 25.5965 110.244 25.6716C110.404 25.7432 110.592 25.7773 110.797 25.7773ZM110.196 25.3408V23.4072H110.763C110.999 23.4072 111.173 23.4549 111.286 23.5504C111.399 23.6459 111.457 23.7891 111.457 23.9767C111.457 24.1165 111.419 24.229 111.351 24.3075C111.279 24.3893 111.197 24.4473 111.105 24.4848L111.618 25.3408H111.262L110.814 24.5701H110.514V25.3408H110.196ZM110.51 24.3143H110.753C110.872 24.3143 110.968 24.2836 111.037 24.2256C111.105 24.1677 111.139 24.0858 111.139 23.9869C111.139 23.8744 111.108 23.7959 111.043 23.7448C110.978 23.697 110.883 23.6698 110.749 23.6698H110.514V24.3143H110.51Z" fill="#5A5377"/>
</mask>
<g mask="url(#mask0_359_177)">
<rect x="-13" y="-11" width="152" height="87" fill="#895FD8"/>
</g>
</svg>
