<svg width="1280" height="2161" viewBox="0 0 1280 2161" fill="none" xmlns="http://www.w3.org/2000/svg">
<g clip-path="url(#clip0_257_161)">
<rect width="1280" height="2161" fill="url(#paint0_linear_257_161)"/>
<g clip-path="url(#clip1_257_161)">
<rect width="1280" height="488" transform="translate(0 1677.09)" fill="#7E79DD"/>
<path d="M102.5 1857.59C149.219 1857.59 191.493 1870.5 222.073 1891.34C252.656 1912.18 271.5 1940.91 271.5 1972.59C271.5 2004.28 252.656 2033.01 222.073 2053.85C191.493 2074.69 149.219 2087.59 102.5 2087.59C55.781 2087.59 13.5069 2074.69 -17.0732 2053.85C-47.6559 2033.01 -66.5 2004.28 -66.5 1972.59C-66.5 1940.91 -47.6559 1912.18 -17.0732 1891.34C13.5069 1870.5 55.781 1857.59 102.5 1857.59Z" fill="#3A3F95" stroke="#2B358E"/>
<path d="M661.528 1893.59C903.998 1879.6 1090.06 1897.04 1215.48 1934.43C1278.19 1953.12 1325.72 1976.79 1357.55 2003.98C1389.38 2031.17 1405.5 2061.85 1405.5 2094.59C1405.5 2127.3 1384.81 2158.54 1347.19 2187.03C1309.58 2215.52 1255.12 2241.19 1187.79 2262.76C1053.12 2305.9 867.051 2332.59 661.5 2332.59C455.895 2332.59 252.802 2335.65 101.103 2322.24C25.2492 2315.54 -37.7057 2304.72 -81.6845 2287.37C-125.682 2270.01 -150.5 2246.2 -150.5 2213.6C-150.5 2180.9 -125.578 2144.54 -81.5507 2108.33C-37.5516 2072.15 25.4159 2036.23 101.252 2004.41C252.922 1940.78 455.982 1893.59 661.5 1893.59H661.515L661.528 1893.59Z" fill="#5655BF" stroke="#5758BF"/>
<path d="M90.4936 1757.86L0 1779.92C0.0553191 1841.08 56.1177 1886.59 117.267 1887.9C144.813 1888.49 172.334 1891.1 199.628 1895.75L406.183 1930.92C486.361 1944.58 568.331 1941.09 647.202 1920.68C689.531 1909.72 730.61 1893.98 769.723 1873.73L802.134 1856.95L874.453 1828.39C879.704 1826.31 883.842 1821.94 885.793 1816.41C887.781 1810.77 887.296 1804.49 884.466 1799.26L879.399 1789.89L874.444 1780.85C871.953 1776.31 868.367 1772.54 864.047 1769.92C859.751 1767.32 854.882 1765.95 849.926 1765.95H834.55C828.15 1765.95 821.77 1766.71 815.529 1768.2L802.694 1771.27C792.534 1773.7 782.211 1775.3 771.818 1776.06L758 1778.09C755.784 1778.26 750.22 1779.01 746.292 1779.18C735.654 1779.63 722.303 1779.72 714.117 1787.65C688.431 1812.56 627.246 1783.39 600.373 1823.51L595.175 1831.27C591.838 1836.25 587.648 1840.53 582.82 1843.9C568.725 1853.73 550.677 1854.76 535.653 1846.6L423.539 1785.66C399.555 1772.62 373.798 1763.57 347.183 1758.83L303.873 1751.12C233.023 1738.5 160.498 1740.79 90.4936 1757.86Z" fill="#5655BF"/>
<path d="M0 1779.92L90.4936 1757.86C160.498 1740.79 233.023 1738.5 303.873 1751.12L347.183 1758.83C373.798 1763.57 399.555 1772.62 423.539 1785.66L535.653 1846.6C550.677 1854.77 568.725 1853.73 582.82 1843.9C587.648 1840.53 591.838 1836.25 595.175 1831.27L600.373 1823.51C627.246 1783.39 688.431 1812.56 714.117 1787.65M0 1779.92V1779.92C0.0553191 1841.08 56.1177 1886.59 117.267 1887.9C144.813 1888.49 172.334 1891.1 199.628 1895.75M0 1779.92C0.0553191 1841.08 56.1177 1886.59 117.267 1887.9C144.813 1888.49 172.334 1891.1 199.628 1895.75M199.628 1895.75L406.183 1930.92C486.361 1944.58 568.331 1941.09 647.202 1920.68C689.531 1909.72 730.61 1893.98 769.723 1873.73L802.134 1856.95L874.453 1828.39C879.704 1826.31 883.842 1821.94 885.793 1816.41C887.781 1810.77 887.296 1804.49 884.466 1799.26L879.399 1789.89L874.444 1780.85C871.953 1776.31 868.367 1772.54 864.047 1769.92C859.751 1767.32 854.882 1765.95 849.926 1765.95H834.55C828.15 1765.95 821.77 1766.71 815.529 1768.2L802.694 1771.27C792.534 1773.7 782.211 1775.3 771.818 1776.06L758 1778.09M758 1778.09C755.784 1778.26 750.22 1779.01 746.292 1779.18C744.116 1779.27 741.907 1779.35 739.786 1779.84V1779.84C737.666 1780.34 735.469 1780.33 733.294 1780.24C726.266 1779.94 719.355 1782.58 714.117 1787.65M758 1778.09C755.784 1778.26 750.22 1779.01 746.292 1779.18C735.654 1779.63 722.303 1779.72 714.117 1787.65" stroke="#5758BF"/>
<path d="M882.809 1642.05L842 1649.59C842.025 1670.5 867.307 1686.05 894.883 1686.5C907.305 1686.7 919.716 1687.6 932.024 1689.18L1025.17 1701.21C1061.33 1705.87 1098.29 1704.68 1133.86 1697.7C1152.95 1693.96 1171.47 1688.58 1189.11 1681.66L1203.73 1675.92L1236.34 1666.16C1238.71 1665.45 1240.58 1663.95 1241.46 1662.06C1242.35 1660.13 1242.13 1657.99 1240.86 1656.2L1238.57 1653L1236.34 1649.91C1235.21 1648.35 1233.6 1647.07 1231.65 1646.17C1229.71 1645.28 1227.52 1644.81 1225.28 1644.81H1218.35C1215.46 1644.81 1212.58 1645.07 1209.77 1645.58L1203.98 1646.63C1199.4 1647.46 1194.74 1648.01 1190.06 1648.27L1183.83 1648.96C1182.83 1649.02 1180.32 1649.28 1178.55 1649.34L1178.42 1649.34C1177.48 1649.37 1176.53 1649.4 1175.61 1649.56C1174.66 1649.73 1173.67 1649.73 1172.68 1649.7C1169.52 1649.6 1166.4 1650.5 1164.04 1652.23C1162.03 1653.71 1159.45 1653.08 1156.73 1653.23L1147.58 1653.75C1144.39 1653.93 1141.23 1654.43 1138.2 1655.24L1127.53 1658.07C1126.57 1658.33 1125.59 1658.52 1124.59 1658.64C1119.81 1659.22 1115.53 1661.33 1112.74 1664.49L1110.4 1667.14C1108.89 1668.84 1107 1670.31 1104.83 1671.46C1098.47 1674.82 1090.33 1675.17 1083.56 1672.38L1033 1651.55C1022.18 1647.09 1010.57 1644 998.565 1642.38L979.034 1639.74C947.084 1635.43 914.378 1636.21 882.809 1642.05Z" fill="#5655BF"/>
<path d="M125.494 1793.86L49.8292 1812.3C40.4756 1814.59 30.593 1812.41 23.0647 1806.41C-4.72183 1784.25 -41.9461 1818.49 -22.1915 1848.03L19.3805 1910.19C28.9146 1924.45 46.1358 1931.88 62.6132 1927.12C99.4383 1916.49 120.937 1903.23 157.651 1903.71C176.358 1903.95 193.717 1912.49 208.458 1924.01C227.638 1939 251.148 1947.38 275.482 1947.92L424.289 1951.19C451.726 1951.79 479.126 1955.58 506.563 1954.95C623.878 1952.22 741.391 1864.55 855.352 1901.23C864.851 1904.28 874.688 1906.46 884.667 1906.46C894.168 1906.46 903.769 1907.08 912.956 1909.5C939.714 1916.56 999.694 1934.03 1047.25 1944.1C1094.74 1954.14 1091.98 1916.38 1056.52 1883.23C1050.31 1877.42 1044.1 1871.64 1038.23 1866.18L1034.42 1862.64C1014.41 1844.02 986.843 1830.55 959.697 1827.37C955.239 1826.85 950.808 1826.02 946.559 1824.57C920.697 1815.79 904.536 1801.95 869.55 1801.95C844.21 1801.95 818.022 1810.42 793 1814.09C751.582 1817.14 707.292 1827.02 668.156 1840.74C666.034 1841.49 663.855 1842.04 661.643 1842.4C651.039 1844.1 641.553 1850.28 635.373 1859.51C630.83 1866.29 625.182 1872.83 618.729 1878.12C592.215 1899.85 551.081 1888.88 517.5 1895.78C483.919 1902.68 449.92 1895.92 420.569 1878.2C407.57 1870.36 394.452 1863.72 382.5 1861.59L293 1846.6C222.149 1833.98 195.498 1776.79 125.494 1793.86Z" fill="#4046A9" stroke="#4046A9" stroke-linejoin="round"/>
<path d="M730.494 2215.33L640 2193.27C640.055 2132.11 696.118 2086.6 757.267 2085.29C784.813 2084.7 812.334 2082.08 839.628 2077.44L1046.18 2042.27C1126.36 2028.61 1208.33 2032.1 1287.2 2052.51C1329.53 2063.47 1370.61 2079.21 1409.72 2099.46L1442.13 2116.24L1514.45 2144.8C1519.7 2146.88 1523.84 2151.25 1525.79 2156.78C1527.78 2162.42 1527.3 2168.7 1524.47 2173.93L1519.4 2183.3L1514.44 2192.34C1511.95 2196.88 1508.37 2200.65 1504.05 2203.27C1499.75 2205.87 1494.88 2207.24 1489.93 2207.24H1474.55C1468.15 2207.24 1461.77 2206.48 1455.53 2204.99L1442.69 2201.92C1432.53 2199.49 1422.21 2197.89 1411.82 2197.13L1398 2195.09C1395.78 2194.93 1390.22 2194.18 1386.29 2194.01L1386.01 2194C1383.93 2193.91 1381.82 2193.82 1379.79 2193.34C1377.67 2192.85 1375.47 2192.86 1373.29 2192.95C1366.27 2193.25 1359.36 2190.61 1354.12 2185.53C1349.66 2181.22 1343.95 2183.05 1337.9 2182.6L1317.63 2181.1C1310.55 2180.57 1303.55 2179.11 1296.81 2176.74C1288.14 2173.7 1280.76 2186.58 1273.02 2191.53C1271.99 2192.19 1271.03 2192.42 1270.5 2192.34C1266.84 2191.75 1264.89 2194.01 1263.66 2196.84C1260.11 2204.99 1253.86 2200.88 1246.75 2195.56C1239.64 2190.25 1233.71 2190.92 1231.54 2199.54C1226.93 2217.8 1221 2243.94 1221 2182.6C1206.9 2172.77 1187.52 2184.17 1172.5 2192.34L1063.54 2187.53C1039.56 2200.57 1013.8 2209.62 987.183 2214.36L943.873 2222.07C873.023 2234.69 800.498 2232.4 730.494 2215.33Z" fill="#3A3F95" stroke="#2B358E"/>
<path d="M590.5 2067.3L317.896 2161.75C314.367 2162.98 312 2166.3 312 2170.04C312 2175.75 317.352 2180.13 323.044 2179.64C364.661 2176.06 467.827 2186.47 526.195 2178.1C551.949 2174.4 579.984 2165.64 605.82 2168.71C622.643 2170.71 639.661 2167.21 654.321 2158.72L670.927 2149.1C679.876 2143.91 689.394 2139.78 699.291 2136.78C721.535 2130.05 745.552 2130.56 768.456 2126.62C808.374 2119.74 852.542 2093.52 888.037 2081.31C903.228 2076.08 910.286 2079.59 918.703 2079.52C932.956 2079.4 946.771 2072.5 960.966 2073.79C964.648 2074.13 968.352 2074.13 972.034 2073.79L978.384 2073.21C995.522 2071.65 1012.93 2068.99 1029.87 2065.94C1077.96 2057.3 1177.12 2040.1 1178 2036.8C1178.85 2033.6 1112.05 2035.15 1074.42 2034.7C1058.81 2034.52 1039.86 2031.44 1024.44 2029.04C1021.55 2028.59 1018.68 2027.84 1015.94 2026.8C1008.44 2022.75 1000.91 2017.41 992.953 2014.36C990.88 2013.57 989.121 2012.85 988.315 2012.2C985.787 2010.17 982.923 2009.09 980.007 2009.09H970.959C967.194 2009.09 963.44 2009.68 959.769 2010.85C948.594 2014.4 937.391 2016.35 925.92 2018.59C871.342 2023.92 788.438 2025.1 723.892 2044.66C680.201 2057.91 633.93 2053.22 590.5 2067.3Z" fill="#4046A9" stroke="#3F43A7" stroke-linejoin="round"/>
<path d="M772.418 1896.2C779.277 1946.11 887.176 1972.52 1013.42 1955.17C1139.66 1937.83 1236.44 1883.3 1229.58 1833.38C1222.72 1783.47 1114.82 1757.06 988.582 1774.41C862.339 1791.75 765.56 1846.28 772.418 1896.2Z" fill="#363D9F"/>
<path d="M788.434 1891.47C794.199 1933.43 894.073 1954.37 1011.51 1938.23C1128.94 1922.1 1219.47 1875 1213.7 1833.04C1207.94 1791.07 1108.06 1770.13 990.628 1786.27C873.194 1802.4 782.668 1849.5 788.434 1891.47Z" fill="#625CC0"/>
<path d="M797.564 1879.08C802.501 1915.01 896.21 1931.81 1006.87 1916.61C1117.53 1901.4 1203.23 1859.95 1198.3 1824.02C1193.36 1788.09 1099.65 1771.29 988.992 1786.49C878.333 1801.7 792.628 1843.15 797.564 1879.08Z" fill="#1F1058"/>
<path d="M370 1965.5C370 1989.52 310.006 2009 236 2009C161.994 2009 102 1989.52 102 1965.5C102 1941.48 161.994 1922 236 1922C310.006 1922 370 1941.48 370 1965.5Z" fill="#363D9F"/>
<path d="M360.411 1964.3C360.411 1984.5 304.603 2000.87 235.76 2000.87C166.917 2000.87 111.109 1984.5 111.109 1964.3C111.109 1944.11 166.917 1927.74 235.76 1927.74C304.603 1927.74 360.411 1944.11 360.411 1964.3Z" fill="#625CC0"/>
<path d="M354.179 1959.05C354.179 1976.34 301.59 1990.36 236.719 1990.36C171.848 1990.36 146.5 1976.34 146.5 1959.05C146.5 1941.75 171.848 1927.74 236.719 1927.74C301.59 1927.74 354.179 1941.75 354.179 1959.05Z" fill="#1F1058"/>
<path d="M638.482 1763.62C636.181 1784.13 589.624 1795.75 534.493 1789.56C479.362 1783.38 436.534 1761.74 438.835 1741.23C441.135 1720.72 487.693 1709.11 542.824 1715.29C597.955 1721.48 640.782 1743.11 638.482 1763.62Z" fill="#363D9F"/>
<path d="M631.453 1761.8C629.519 1779.04 586.377 1788.36 535.092 1782.61C483.808 1776.85 443.801 1758.21 445.735 1740.97C447.669 1723.73 490.811 1714.42 542.096 1720.17C593.38 1725.92 633.387 1744.56 631.453 1761.8Z" fill="#625CC0"/>
<path d="M613 1752.96C611.344 1767.72 570.826 1765.21 522.5 1759.79C474.174 1754.37 450.654 1751.93 452.31 1737.16C453.966 1722.4 494.484 1714.83 542.81 1720.25C591.136 1725.67 614.656 1738.2 613 1752.96Z" fill="#1F1058"/>
</g>
<path d="M413.033 1734.11C413.868 1792.61 416.429 1798.51 376.308 1799.55C336.188 1800.58 334.93 1792.12 334.696 1737.1C334.461 1682.08 349.788 1672.49 371.421 1671.67C393.053 1670.84 412.199 1675.61 413.033 1734.11Z" fill="#073C73"/>
<path d="M329.168 1737.33C329.903 1795.84 332.631 1801.74 289.643 1802.89C246.655 1804.03 245.331 1795.57 245.229 1740.54C245.127 1685.5 261.575 1675.86 284.755 1674.98C307.934 1674.09 328.433 1678.81 329.168 1737.33Z" fill="#002E5E"/>
<path d="M425.809 1658.07C457.469 1642.91 493.895 1628.65 475.376 1603.38C451.966 1571.44 431.613 1596.85 408.404 1612.46C388.147 1626.09 365.516 1639.34 371.118 1651.04C376.72 1662.74 402.71 1669.13 425.809 1658.07Z" fill="#073C73"/>
<path d="M464.169 1636.91L462.041 1638.29L459.518 1639.75L456.842 1641.25L455.241 1642.08L432.397 1595.17L437.33 1592.07L440.973 1590.66L464.169 1636.91Z" fill="#D9D9D9"/>
<path d="M241.648 1614.13C263.001 1629.07 267.393 1647 261.732 1658.28C260.294 1661.15 258.717 1663.37 256.765 1664.92C254.824 1666.45 252.482 1667.34 249.465 1667.46C243.383 1667.7 234.599 1664.87 221.032 1658.06C207.415 1651.22 187.416 1642.86 173.462 1632.67C166.487 1627.58 161.101 1622.08 158.767 1616.16C156.453 1610.29 157.112 1603.93 162.393 1597C167.69 1590.05 173.915 1586.72 180.601 1585.84C187.308 1584.96 194.525 1586.53 201.792 1589.46C216.339 1595.34 230.885 1606.59 241.648 1614.13Z" fill="#002E5E" stroke="#073C73"/>
<path d="M405.331 1687.77C432.429 1755.28 375.989 1757.94 326.026 1759.85C281.323 1761.56 248.155 1738.54 246.447 1693.84C244.738 1649.14 267.862 1635.63 316.45 1627.12C389.514 1614.32 394.333 1635.65 405.331 1687.77Z" fill="#9A6634"/>
<g clip-path="url(#clip2_257_161)">
<path d="M412.828 1687.49C443.231 1763.29 379.914 1766.27 323.862 1768.42C273.712 1770.33 236.501 1744.49 234.583 1694.3C232.665 1644.11 258.606 1628.95 313.114 1619.39C395.082 1605.02 400.488 1628.97 412.828 1687.49Z" fill="#002E5E"/>
<rect x="269.537" y="1692.43" width="44" height="11" transform="rotate(-2.18868 269.537 1692.43)" stroke="#002245" stroke-width="2"/>
<rect x="359.472" y="1689" width="44" height="11" transform="rotate(-2.18868 359.472 1689)" stroke="#002245" stroke-width="2"/>
<line x1="338.334" y1="1674.19" x2="318.043" y2="1666.96" stroke="#002245" stroke-width="3"/>
<line x1="319.696" y1="1667" x2="303.746" y2="1668.61" stroke="#002245" stroke-width="3"/>
<line x1="305.28" y1="1669.57" x2="292.029" y2="1637.05" stroke="#002245" stroke-width="3"/>
<line y1="-1.5" x2="21.5407" y2="-1.5" transform="matrix(0.913616 -0.406579 -0.406579 -0.913616 335.839 1672.89)" stroke="#002245" stroke-width="3"/>
<line y1="-1.5" x2="16.0312" y2="-1.5" transform="matrix(0.999707 0.0242168 0.0242168 -0.999707 354.52 1664.17)" stroke="#002245" stroke-width="3"/>
<line y1="-1.5" x2="35.1141" y2="-1.5" transform="matrix(0.305603 -0.952159 -0.952159 -0.305603 367.625 1666.67)" stroke="#002245" stroke-width="3"/>
<rect x="373.207" y="1629.43" width="11" height="42" transform="rotate(-2.18868 373.207 1629.43)" fill="#D9D9D9"/>
<rect x="281.389" y="1635.94" width="11" height="39" transform="rotate(-2.18868 281.389 1635.94)" fill="#D9D9D9"/>
</g>
<path d="M335.879 1671.87C336.727 1672.78 338.196 1672.71 338.945 1671.71L369.66 1630.77C370.679 1629.41 369.651 1627.48 367.956 1627.57L302.432 1630.99C300.738 1631.08 299.916 1633.1 301.07 1634.34L335.879 1671.87Z" fill="#9A6634"/>
<line x1="337.301" y1="1671.86" x2="338.969" y2="1767.87" stroke="#002245" stroke-width="3"/>
<path d="M242.856 1727.48L331.925 1727.58L420.772 1721.71" stroke="#002245" stroke-width="3"/>
<path d="M336.678 1672.91L366.807 1632.18" stroke="#002245" stroke-width="3"/>
<path d="M337.357 1673.33L303.373 1635.1" stroke="#002245" stroke-width="3"/>
<path d="M472.133 1523.46C472.739 1526.76 473.009 1530.18 472.895 1533.53C469.806 1624.4 397.819 1634.39 313.548 1637.61C227.731 1640.89 173.428 1610.94 171.518 1560.98C163.393 1466.22 233.665 1416.5 319.483 1413.22C414.325 1409.59 458.399 1448.87 472.133 1523.46Z" fill="#9A6634"/>
<path d="M386.734 1569.85C387.727 1595.83 382.784 1610.53 334.205 1609.38C297.732 1610.78 278.997 1604.99 281.311 1573.88C280.551 1554.01 298.827 1534.68 331.36 1534.94C365.359 1535.21 385.974 1549.98 386.734 1569.85Z" fill="#E8D0A9"/>
<path d="M337.764 1561.92C336.27 1563.48 333.8 1563.58 332.191 1562.13L316.821 1548.29C314.153 1545.88 315.757 1541.45 319.345 1541.32L348.984 1540.18C352.572 1540.05 354.509 1544.34 352.033 1546.94L337.764 1561.92Z" fill="#3D230A"/>
<path d="M228.798 1421.12C242.497 1440.96 238.909 1467.09 220.784 1479.49C202.659 1491.88 176.86 1485.84 163.16 1466C149.461 1446.16 153.049 1420.03 171.174 1407.64C189.3 1395.25 215.099 1401.28 228.798 1421.12Z" fill="#9A6634"/>
<path d="M215.495 1431.35C223.025 1442.57 221.072 1457.32 211.132 1464.31C201.192 1471.29 187.03 1467.87 179.5 1456.66C171.969 1445.44 173.923 1430.69 183.862 1423.7C193.802 1416.72 207.964 1420.14 215.495 1431.35Z" fill="#E8D0A9"/>
<path d="M405.994 1417.35C394.442 1437.2 399.744 1461.76 417.836 1472.22C435.927 1482.68 459.957 1475.07 471.508 1455.22C483.06 1435.38 477.758 1410.81 459.667 1400.35C441.575 1389.89 417.545 1397.5 405.994 1417.35Z" fill="#9A6634"/>
<path d="M421.099 1425.74C414.892 1436.76 417.763 1450.41 427.512 1456.24C437.261 1462.06 450.196 1457.84 456.403 1446.83C462.61 1435.81 459.739 1422.16 449.99 1416.34C440.242 1410.51 427.307 1414.73 421.099 1425.74Z" fill="#E8D0A9"/>
<path d="M333.402 1560.07C337.106 1578.44 329.494 1588.74 312.544 1590.39" stroke="#3D230A" stroke-width="4" stroke-linecap="round"/>
<path d="M335.862 1559.98C333.571 1578.58 341.947 1588.26 358.973 1588.61" stroke="#3D230A" stroke-width="4" stroke-linecap="round"/>
<rect x="387.708" y="1514.69" width="18" height="36" rx="9" transform="rotate(-2.18868 387.708 1514.69)" fill="#3D230A"/>
<path d="M403.964 1521.07C403.964 1521.07 404.886 1520.94 405.443 1520.51C406.433 1519.75 407.846 1517.92 407.846 1517.92L409.25 1515.36" stroke="#3D230A" stroke-width="6" stroke-linecap="round"/>
<rect width="18" height="36" rx="9" transform="matrix(-0.99927 0.0381904 0.0381904 0.99927 272.121 1519.1)" fill="#3D230A"/>
<path d="M256.4 1526.71C256.4 1526.71 255.471 1526.65 254.882 1526.27C253.837 1525.58 252.288 1523.86 252.288 1523.86L250.694 1521.42" stroke="#3D230A" stroke-width="6" stroke-linecap="round"/>
<path d="M118.523 1597.61C118.39 1595.67 120.808 1594.7 122.052 1596.18L132.792 1609.01C133.348 1609.68 134.269 1609.91 135.073 1609.58L150.592 1603.33C152.389 1602.61 154.063 1604.61 153.034 1606.25L144.153 1620.43C143.693 1621.16 143.758 1622.11 144.314 1622.77L155.055 1635.6C156.298 1637.09 154.914 1639.3 153.035 1638.83L136.806 1634.76C135.965 1634.55 135.085 1634.91 134.625 1635.64L125.743 1649.82C124.715 1651.46 122.186 1650.83 122.053 1648.89L120.904 1632.2C120.845 1631.34 120.236 1630.61 119.395 1630.4L103.166 1626.33C101.286 1625.86 101.107 1623.26 102.905 1622.54L118.424 1616.29C119.228 1615.97 119.731 1615.16 119.672 1614.3L118.523 1597.61Z" fill="#FAD424"/>
<path d="M532.063 1484.05C533.3 1482.56 535.722 1483.52 535.598 1485.46L534.527 1502.15C534.472 1503.02 534.979 1503.82 535.784 1504.14L551.333 1510.32C553.133 1511.03 552.966 1513.64 551.089 1514.12L534.879 1518.26C534.039 1518.47 533.433 1519.2 533.378 1520.07L532.307 1536.76C532.183 1538.7 529.657 1539.34 528.621 1537.7L519.674 1523.57C519.21 1522.83 518.328 1522.48 517.489 1522.7L501.278 1526.84C499.401 1527.32 498.007 1525.12 499.244 1523.62L509.924 1510.75C510.478 1510.08 510.538 1509.13 510.075 1508.4L501.128 1494.26C500.092 1492.63 501.756 1490.62 503.556 1491.33L519.104 1497.51C519.91 1497.83 520.829 1497.6 521.382 1496.93L532.063 1484.05Z" fill="#FAD424"/>
<path d="M500.174 1541.13C500.872 1539.33 503.475 1539.47 503.972 1541.34L504.882 1544.77C505.104 1545.61 505.84 1546.21 506.706 1546.26L510.25 1546.45C512.184 1546.56 512.853 1549.08 511.225 1550.13L508.244 1552.06C507.516 1552.53 507.173 1553.41 507.396 1554.25L508.306 1557.68C508.802 1559.55 506.613 1560.97 505.11 1559.74L502.357 1557.5C501.685 1556.96 500.737 1556.9 500.01 1557.37L497.028 1559.3C495.401 1560.35 493.379 1558.7 494.078 1556.9L495.358 1553.59C495.67 1552.78 495.427 1551.86 494.755 1551.31L492.002 1549.07C490.5 1547.85 491.44 1545.42 493.374 1545.53L496.918 1545.72C497.783 1545.77 498.581 1545.25 498.893 1544.45L500.174 1541.13Z" fill="#FAD424"/>
<g filter="url(#filter0_f_257_161)">
<path d="M8 268C8 270.209 6.20914 272 4 272C1.79086 272 0 270.209 0 268C0 265.791 1.79086 264 4 264C6.20914 264 8 265.791 8 268Z" fill="url(#paint1_radial_257_161)"/>
</g>
<g filter="url(#filter1_f_257_161)">
<circle cx="371" cy="165" r="4" fill="url(#paint2_radial_257_161)"/>
</g>
<g filter="url(#filter2_f_257_161)">
<circle cx="230" cy="268" r="4" fill="url(#paint3_radial_257_161)"/>
</g>
<g filter="url(#filter3_f_257_161)">
<circle cx="96" cy="117" r="4" fill="url(#paint4_radial_257_161)"/>
</g>
<g filter="url(#filter4_f_257_161)">
<circle cx="647" cy="125" r="4" fill="url(#paint5_radial_257_161)"/>
</g>
<g filter="url(#filter5_f_257_161)">
<circle cx="746" cy="288" r="4" fill="url(#paint6_radial_257_161)"/>
</g>
<g filter="url(#filter6_f_257_161)">
<path d="M1047.5 52.5C1047.5 54.7091 1045.71 56.5 1043.5 56.5C1041.29 56.5 1039.5 54.7091 1039.5 52.5C1039.5 50.2909 1041.29 48.5 1043.5 48.5C1045.71 48.5 1047.5 50.2909 1047.5 52.5Z" fill="url(#paint7_radial_257_161)"/>
</g>
<g filter="url(#filter7_f_257_161)">
<path d="M1280 145C1280 147.209 1278.21 149 1276 149C1273.79 149 1272 147.209 1272 145C1272 142.791 1273.79 141 1276 141C1278.21 141 1280 142.791 1280 145Z" fill="url(#paint8_radial_257_161)"/>
</g>
<g filter="url(#filter8_f_257_161)">
<circle cx="1055" cy="260" r="4" fill="url(#paint9_radial_257_161)"/>
</g>
<g filter="url(#filter9_f_257_161)">
<circle cx="298" cy="4" r="4" fill="url(#paint10_radial_257_161)"/>
</g>
<g clip-path="url(#clip3_257_161)">
<path d="M1051.52 1609.62C1050.31 1595.14 1031.28 1590.67 1023.75 1603.1L958.433 1710.87C955.065 1716.43 948.502 1719.19 942.176 1717.7L819.488 1688.89C805.342 1685.57 795.209 1702.29 804.701 1713.29L887.021 1808.72C891.266 1813.64 891.86 1820.73 888.492 1826.29L823.177 1934.07C815.646 1946.49 828.417 1961.3 841.814 1955.67L958.006 1906.87C963.997 1904.35 970.928 1905.98 975.172 1910.9L1057.49 2006.32C1066.98 2017.32 1085.01 2009.75 1083.8 1995.27L1073.29 1869.69C1072.75 1863.21 1076.44 1857.12 1082.43 1854.61L1198.62 1805.8C1212.02 1800.17 1210.39 1780.69 1196.24 1777.37L1073.55 1748.56C1067.23 1747.07 1062.58 1741.68 1062.03 1735.21L1051.52 1609.62Z" fill="url(#paint11_linear_257_161)"/>
</g>
</g>
<defs>
<filter id="filter0_f_257_161" x="-4" y="260" width="16" height="16" filterUnits="userSpaceOnUse" color-interpolation-filters="sRGB">
<feFlood flood-opacity="0" result="BackgroundImageFix"/>
<feBlend mode="normal" in="SourceGraphic" in2="BackgroundImageFix" result="shape"/>
<feGaussianBlur stdDeviation="2" result="effect1_foregroundBlur_257_161"/>
</filter>
<filter id="filter1_f_257_161" x="363" y="157" width="16" height="16" filterUnits="userSpaceOnUse" color-interpolation-filters="sRGB">
<feFlood flood-opacity="0" result="BackgroundImageFix"/>
<feBlend mode="normal" in="SourceGraphic" in2="BackgroundImageFix" result="shape"/>
<feGaussianBlur stdDeviation="2" result="effect1_foregroundBlur_257_161"/>
</filter>
<filter id="filter2_f_257_161" x="222" y="260" width="16" height="16" filterUnits="userSpaceOnUse" color-interpolation-filters="sRGB">
<feFlood flood-opacity="0" result="BackgroundImageFix"/>
<feBlend mode="normal" in="SourceGraphic" in2="BackgroundImageFix" result="shape"/>
<feGaussianBlur stdDeviation="2" result="effect1_foregroundBlur_257_161"/>
</filter>
<filter id="filter3_f_257_161" x="88" y="109" width="16" height="16" filterUnits="userSpaceOnUse" color-interpolation-filters="sRGB">
<feFlood flood-opacity="0" result="BackgroundImageFix"/>
<feBlend mode="normal" in="SourceGraphic" in2="BackgroundImageFix" result="shape"/>
<feGaussianBlur stdDeviation="2" result="effect1_foregroundBlur_257_161"/>
</filter>
<filter id="filter4_f_257_161" x="639" y="117" width="16" height="16" filterUnits="userSpaceOnUse" color-interpolation-filters="sRGB">
<feFlood flood-opacity="0" result="BackgroundImageFix"/>
<feBlend mode="normal" in="SourceGraphic" in2="BackgroundImageFix" result="shape"/>
<feGaussianBlur stdDeviation="2" result="effect1_foregroundBlur_257_161"/>
</filter>
<filter id="filter5_f_257_161" x="738" y="280" width="16" height="16" filterUnits="userSpaceOnUse" color-interpolation-filters="sRGB">
<feFlood flood-opacity="0" result="BackgroundImageFix"/>
<feBlend mode="normal" in="SourceGraphic" in2="BackgroundImageFix" result="shape"/>
<feGaussianBlur stdDeviation="2" result="effect1_foregroundBlur_257_161"/>
</filter>
<filter id="filter6_f_257_161" x="1035.5" y="44.5" width="16" height="16" filterUnits="userSpaceOnUse" color-interpolation-filters="sRGB">
<feFlood flood-opacity="0" result="BackgroundImageFix"/>
<feBlend mode="normal" in="SourceGraphic" in2="BackgroundImageFix" result="shape"/>
<feGaussianBlur stdDeviation="2" result="effect1_foregroundBlur_257_161"/>
</filter>
<filter id="filter7_f_257_161" x="1268" y="137" width="16" height="16" filterUnits="userSpaceOnUse" color-interpolation-filters="sRGB">
<feFlood flood-opacity="0" result="BackgroundImageFix"/>
<feBlend mode="normal" in="SourceGraphic" in2="BackgroundImageFix" result="shape"/>
<feGaussianBlur stdDeviation="2" result="effect1_foregroundBlur_257_161"/>
</filter>
<filter id="filter8_f_257_161" x="1047" y="252" width="16" height="16" filterUnits="userSpaceOnUse" color-interpolation-filters="sRGB">
<feFlood flood-opacity="0" result="BackgroundImageFix"/>
<feBlend mode="normal" in="SourceGraphic" in2="BackgroundImageFix" result="shape"/>
<feGaussianBlur stdDeviation="2" result="effect1_foregroundBlur_257_161"/>
</filter>
<filter id="filter9_f_257_161" x="290" y="-4" width="16" height="16" filterUnits="userSpaceOnUse" color-interpolation-filters="sRGB">
<feFlood flood-opacity="0" result="BackgroundImageFix"/>
<feBlend mode="normal" in="SourceGraphic" in2="BackgroundImageFix" result="shape"/>
<feGaussianBlur stdDeviation="2" result="effect1_foregroundBlur_257_161"/>
</filter>
<linearGradient id="paint0_linear_257_161" x1="640" y1="0" x2="640" y2="2161" gradientUnits="userSpaceOnUse">
<stop stop-color="#230F55"/>
<stop offset="0.25" stop-color="#3F2188"/>
<stop offset="0.5" stop-color="#5635A8"/>
<stop offset="1" stop-color="#9066F7"/>
</linearGradient>
<radialGradient id="paint1_radial_257_161" cx="0" cy="0" r="1" gradientUnits="userSpaceOnUse" gradientTransform="translate(73.5 418) rotate(90) scale(4)">
<stop stop-color="white"/>
<stop offset="1" stop-color="#999999"/>
</radialGradient>
<radialGradient id="paint2_radial_257_161" cx="0" cy="0" r="1" gradientUnits="userSpaceOnUse" gradientTransform="translate(371 165) rotate(90) scale(4)">
<stop stop-color="white"/>
<stop offset="1" stop-color="#999999"/>
</radialGradient>
<radialGradient id="paint3_radial_257_161" cx="0" cy="0" r="1" gradientUnits="userSpaceOnUse" gradientTransform="translate(230 268) rotate(90) scale(4)">
<stop stop-color="white"/>
<stop offset="1" stop-color="#999999"/>
</radialGradient>
<radialGradient id="paint4_radial_257_161" cx="0" cy="0" r="1" gradientUnits="userSpaceOnUse" gradientTransform="translate(96 117) rotate(90) scale(4)">
<stop stop-color="white"/>
<stop offset="1" stop-color="#999999"/>
</radialGradient>
<radialGradient id="paint5_radial_257_161" cx="0" cy="0" r="1" gradientUnits="userSpaceOnUse" gradientTransform="translate(647 125) rotate(90) scale(4)">
<stop stop-color="white"/>
<stop offset="1" stop-color="#999999"/>
</radialGradient>
<radialGradient id="paint6_radial_257_161" cx="0" cy="0" r="1" gradientUnits="userSpaceOnUse" gradientTransform="translate(746 288) rotate(90) scale(4)">
<stop stop-color="white"/>
<stop offset="1" stop-color="#999999"/>
</radialGradient>
<radialGradient id="paint7_radial_257_161" cx="0" cy="0" r="1" gradientUnits="userSpaceOnUse" gradientTransform="translate(942 129) rotate(90) scale(4)">
<stop stop-color="white"/>
<stop offset="1" stop-color="#999999"/>
</radialGradient>
<radialGradient id="paint8_radial_257_161" cx="0" cy="0" r="1" gradientUnits="userSpaceOnUse" gradientTransform="translate(1174.5 221.5) rotate(90) scale(4)">
<stop stop-color="white"/>
<stop offset="1" stop-color="#999999"/>
</radialGradient>
<radialGradient id="paint9_radial_257_161" cx="0" cy="0" r="1" gradientUnits="userSpaceOnUse" gradientTransform="translate(1055 260) rotate(90) scale(4)">
<stop stop-color="white"/>
<stop offset="1" stop-color="#999999"/>
</radialGradient>
<radialGradient id="paint10_radial_257_161" cx="0" cy="0" r="1" gradientUnits="userSpaceOnUse" gradientTransform="translate(298 4) rotate(90) scale(4)">
<stop stop-color="white"/>
<stop offset="1" stop-color="#999999"/>
</radialGradient>
<linearGradient id="paint11_linear_257_161" x1="1047.67" y1="1563.61" x2="932.446" y2="2054.27" gradientUnits="userSpaceOnUse">
<stop offset="0.264423" stop-color="#FFE35F"/>
<stop offset="0.658654" stop-color="#B48FEF"/>
</linearGradient>
<clipPath id="clip0_257_161">
<rect width="1280" height="2161" fill="white"/>
</clipPath>
<clipPath id="clip1_257_161">
<rect width="1280" height="488" fill="white" transform="translate(0 1677.09)"/>
</clipPath>
<clipPath id="clip2_257_161">
<rect width="185" height="152" fill="white" transform="translate(231.737 1619.83) rotate(-2.18868)"/>
</clipPath>
<clipPath id="clip3_257_161">
<rect width="606" height="351" fill="white" transform="matrix(-1 0 0 1 1293 1506)"/>
</clipPath>
</defs>
</svg>
