<svg width="29" height="35" viewBox="0 0 29 35" fill="none" xmlns="http://www.w3.org/2000/svg">
<mask id="mask0_270_2137" style="mask-type:luminance" maskUnits="userSpaceOnUse" x="0" y="13" width="20" height="22">
<path d="M0 13.3984H19.113V35.0004H0V13.3984Z" fill="white"/>
</mask>
<g mask="url(#mask0_270_2137)">
<path fill-rule="evenodd" clip-rule="evenodd" d="M7.67694 13.5117L19.0243 19.0635L11.3497 34.9577L7.89348 27.4372L0.00231934 29.406L7.67694 13.5117Z" fill="#FFC50D"/>
</g>
<path fill-rule="evenodd" clip-rule="evenodd" d="M9.33831 14.4824L17.2487 18.1996L11.4521 30.41L9.20808 25.0243L3.3999 26.6083L9.33831 14.4824Z" fill="#FFC50D"/>
<mask id="mask1_270_2137" style="mask-type:luminance" maskUnits="userSpaceOnUse" x="9" y="13" width="20" height="22">
<path d="M9.84082 13.1992H29V34.8446H9.84082V13.1992Z" fill="white"/>
</mask>
<g mask="url(#mask1_270_2137)">
<path fill-rule="evenodd" clip-rule="evenodd" d="M21.2668 13.2637L9.93945 18.8565L17.6719 34.7221L21.1004 27.1892L28.9985 29.1292L21.2668 13.2637Z" fill="#FFC50D"/>
</g>
<path fill-rule="evenodd" clip-rule="evenodd" d="M19.6084 14.2402L11.7111 17.9861L17.5524 30.1756L19.7764 24.7813L25.5907 26.3444L19.6084 14.2402Z" fill="#FFC50D"/>
<mask id="mask2_270_2137" style="mask-type:luminance" maskUnits="userSpaceOnUse" x="3" y="0" width="23" height="23">
<path d="M3.33057 0H25.6231V22.5328H3.33057V0Z" fill="white"/>
</mask>
<g mask="url(#mask2_270_2137)">
<path fill-rule="evenodd" clip-rule="evenodd" d="M14.5008 0C20.6318 0 25.61 5.01108 25.61 11.1826C25.61 17.3549 20.6318 22.3652 14.5008 22.3652C8.36892 22.3652 3.39148 17.3549 3.39148 11.1826C3.39148 5.01108 8.36892 0 14.5008 0Z" fill="#FFC50D"/>
</g>
<path fill-rule="evenodd" clip-rule="evenodd" d="M14.5008 2.4082C19.2293 2.4082 23.0686 6.34027 23.0686 11.183C23.0686 16.0258 19.2293 19.9578 14.5008 19.9578C9.77149 19.9578 5.93225 16.0258 5.93225 11.183C5.93225 6.34027 9.77149 2.4082 14.5008 2.4082Z" fill="#F59F0A"/>
<path fill-rule="evenodd" clip-rule="evenodd" d="M7.35326 6.10971C7.36559 6.07247 7.40335 6.04688 7.44496 6.04688C7.48734 6.04688 7.52433 6.07247 7.53666 6.10971L7.89038 7.1732L9.03475 7.5021C9.0756 7.51374 9.10257 7.54787 9.10257 7.58743C9.10257 7.62622 9.0756 7.66112 9.03475 7.67276L7.89038 8.00089L7.53666 9.06516C7.52433 9.10239 7.48734 9.12799 7.44496 9.12799C7.40335 9.12799 7.36559 9.10239 7.35326 9.06516L6.99954 8.00089L5.85517 7.67276C5.8151 7.66112 5.78735 7.62622 5.78735 7.58743C5.78735 7.54787 5.8151 7.51374 5.85517 7.5021L6.99954 7.1732L7.35326 6.10971Z" fill="#FAF29F"/>
<path fill-rule="evenodd" clip-rule="evenodd" d="M21.3916 14.6671C21.4047 14.6291 21.4425 14.6035 21.4849 14.6035C21.528 14.6035 21.5658 14.6291 21.5781 14.6671L21.9372 15.7469L23.0986 16.0797C23.1394 16.0921 23.1671 16.127 23.1671 16.1666C23.1671 16.2061 23.1394 16.2418 23.0986 16.2534L21.9372 16.587L21.5781 17.666C21.5658 17.704 21.528 17.7304 21.4849 17.7304C21.4425 17.7304 21.4047 17.704 21.3916 17.666L21.0333 16.587L19.8712 16.2534C19.8304 16.2418 19.8026 16.2061 19.8026 16.1666C19.8026 16.127 19.8304 16.0921 19.8712 16.0797L21.0333 15.7469L21.3916 14.6671Z" fill="#FAF29F"/>
<path fill-rule="evenodd" clip-rule="evenodd" d="M5.69493 8.29657C5.70263 8.27097 5.72806 8.25391 5.75658 8.25391C5.78432 8.25391 5.80975 8.27097 5.81746 8.29657L6.05558 9.01022L6.82312 9.23052C6.85009 9.23828 6.86858 9.26155 6.86858 9.28793C6.86858 9.3143 6.85009 9.33757 6.82312 9.34533L6.05558 9.56563L5.81746 10.2793C5.80975 10.3049 5.78432 10.3219 5.75658 10.3219C5.72806 10.3219 5.70263 10.3049 5.69493 10.2793L5.45757 9.56563L4.68927 9.34533C4.66229 9.33757 4.6438 9.3143 4.6438 9.28793C4.6438 9.26155 4.66229 9.23828 4.68927 9.23052L5.45757 9.01022L5.69493 8.29657Z" fill="#FAF29F"/>
<path fill-rule="evenodd" clip-rule="evenodd" d="M23.05 12.8883C23.0593 12.8604 23.0862 12.8418 23.1171 12.8418C23.1487 12.8418 23.1756 12.8604 23.1849 12.8883L23.4454 13.671L24.2876 13.9131C24.3169 13.9216 24.3377 13.9464 24.3377 13.9751C24.3377 14.0046 24.3169 14.0294 24.2876 14.0379L23.4454 14.28L23.1849 15.0627C23.1756 15.0906 23.1487 15.1092 23.1171 15.1092C23.0862 15.1092 23.0593 15.0906 23.05 15.0627L22.7896 14.28L21.9473 14.0379C21.918 14.0294 21.8979 14.0046 21.8979 13.9751C21.8979 13.9464 21.918 13.9216 21.9473 13.9131L22.7896 13.671L23.05 12.8883Z" fill="#FAF29F"/>
<path d="M13.7132 14.968C13.7132 15.7165 14.3297 16.1145 14.9747 16.1098C15.6182 16.1051 16.2301 15.6948 16.2301 14.968V7.75852C16.2301 7.11623 15.9996 6.72605 15.7076 6.52437C15.3962 6.30949 14.9763 6.28002 14.5355 6.47007C14.537 6.46929 12.7507 7.1333 12.7507 7.1333C12.2421 7.30395 11.9801 7.63828 11.8838 7.98813C11.6526 8.82434 12.4155 9.84595 13.489 9.49455C13.4982 9.49223 13.5067 9.48835 13.5152 9.48524L13.7132 9.40535V14.968Z" fill="#FAF29F"/>
</svg>
