<svg width="29" height="35" viewBox="0 0 29 35" fill="none" xmlns="http://www.w3.org/2000/svg">
<mask id="mask0_270_2169" style="mask-type:luminance" maskUnits="userSpaceOnUse" x="0" y="13" width="20" height="22">
<path d="M0 13.3984H19.0552V35.0004H0V13.3984Z" fill="white"/>
</mask>
<g mask="url(#mask0_270_2169)">
<path fill-rule="evenodd" clip-rule="evenodd" d="M7.67926 13.5117L19.0267 19.0627L11.352 34.957L7.8958 27.4372L0.00463867 29.4052L7.67926 13.5117Z" fill="#CDCDE9"/>
</g>
<path fill-rule="evenodd" clip-rule="evenodd" d="M9.34063 14.4785L17.2511 18.1957L11.4544 30.4061L9.21117 25.0204L3.40222 26.6044L9.34063 14.4785Z" fill="#CDCDE9"/>
<mask id="mask1_270_2169" style="mask-type:luminance" maskUnits="userSpaceOnUse" x="9" y="13" width="20" height="22">
<path d="M9.78296 13.1992H28.9999V34.8446H9.78296V13.1992Z" fill="white"/>
</mask>
<g mask="url(#mask1_270_2169)">
<path fill-rule="evenodd" clip-rule="evenodd" d="M21.269 13.2617L9.94165 18.8546L17.6741 34.7209L21.1026 27.188L29.0007 29.1273L21.269 13.2617Z" fill="#CDCDE9"/>
</g>
<path fill-rule="evenodd" clip-rule="evenodd" d="M19.6107 14.2383L11.7134 17.985L17.5547 30.1737L19.7795 24.7794L25.593 26.3424L19.6107 14.2383Z" fill="#CDCDE9"/>
<mask id="mask2_270_2169" style="mask-type:luminance" maskUnits="userSpaceOnUse" x="3" y="0" width="23" height="23">
<path d="M3.27283 0H25.7626V22.5328H3.27283V0Z" fill="white"/>
</mask>
<g mask="url(#mask2_270_2169)">
<path fill-rule="evenodd" clip-rule="evenodd" d="M14.5031 -0.00195312C20.6341 -0.00195312 25.6124 5.00913 25.6124 11.1814C25.6124 17.353 20.6341 22.3633 14.5031 22.3633C8.37124 22.3633 3.3938 17.353 3.3938 11.1814C3.3938 5.00913 8.37124 -0.00195312 14.5031 -0.00195312Z" fill="#CDCDE9"/>
</g>
<path fill-rule="evenodd" clip-rule="evenodd" d="M14.5031 2.40625C19.2316 2.40625 23.0709 6.33832 23.0709 11.1818C23.0709 16.0246 19.2316 19.9559 14.5031 19.9559C9.77381 19.9559 5.93457 16.0246 5.93457 11.1818C5.93457 6.33832 9.77381 2.40625 14.5031 2.40625Z" fill="#AAAACE"/>
<path fill-rule="evenodd" clip-rule="evenodd" d="M7.35558 6.10775C7.36791 6.07052 7.40567 6.04492 7.44805 6.04492C7.48966 6.04492 7.52665 6.07052 7.53975 6.10775L7.8927 7.17125L9.03784 7.50015C9.07791 7.51179 9.10489 7.54669 9.10489 7.58548C9.10489 7.62426 9.07791 7.65917 9.03784 7.67081L7.8927 7.99971L7.53975 9.0632C7.52665 9.10044 7.48966 9.12604 7.44805 9.12604C7.40567 9.12604 7.36791 9.10044 7.35558 9.0632L7.00186 7.99971L5.85749 7.67081C5.81742 7.65917 5.78967 7.62426 5.78967 7.58548C5.78967 7.54669 5.81742 7.51179 5.85749 7.50015L7.00186 7.17125L7.35558 6.10775Z" fill="#E7E8F0"/>
<path fill-rule="evenodd" clip-rule="evenodd" d="M21.394 14.6632C21.4071 14.6252 21.4448 14.5996 21.4872 14.5996C21.5304 14.5996 21.5681 14.6252 21.5804 14.6632L21.9396 15.743L23.1009 16.0766C23.1417 16.0882 23.1695 16.1231 23.1695 16.1627C23.1695 16.203 23.1417 16.2379 23.1009 16.2495L21.9396 16.5831L21.5804 17.6629C21.5681 17.7009 21.5304 17.7265 21.4872 17.7265C21.4448 17.7265 21.4071 17.7009 21.394 17.6629L21.0356 16.5831L19.8735 16.2495C19.8334 16.2379 19.8049 16.203 19.8049 16.1627C19.8049 16.1231 19.8334 16.0882 19.8735 16.0766L21.0356 15.743L21.394 14.6632Z" fill="#E7E8F0"/>
<path fill-rule="evenodd" clip-rule="evenodd" d="M5.69712 8.29384C5.70483 8.26902 5.73026 8.25195 5.75877 8.25195C5.78652 8.25195 5.81195 8.26902 5.82042 8.29384L6.05777 9.00749L6.82531 9.22857C6.85229 9.23633 6.87078 9.2596 6.87078 9.2852C6.87078 9.31157 6.85229 9.33484 6.82531 9.3426L6.05777 9.56368L5.82042 10.2773C5.81195 10.3022 5.78652 10.3192 5.75877 10.3192C5.73026 10.3192 5.70483 10.3022 5.69712 10.2773L5.45977 9.56368L4.69146 9.3426C4.66449 9.33484 4.646 9.31157 4.646 9.2852C4.646 9.2596 4.66449 9.23633 4.69146 9.22857L5.45977 9.00749L5.69712 8.29384Z" fill="#E7E8F0"/>
<path fill-rule="evenodd" clip-rule="evenodd" d="M23.0523 12.8864C23.0616 12.8592 23.0893 12.8398 23.1202 12.8398C23.151 12.8398 23.1787 12.8592 23.1872 12.8864L23.4477 13.6691L24.29 13.9111C24.3192 13.9196 24.3401 13.9452 24.3401 13.9739C24.3401 14.0026 24.3192 14.0282 24.29 14.0368L23.4477 14.278L23.1872 15.0615C23.1787 15.0886 23.151 15.1072 23.1202 15.1072C23.0893 15.1072 23.0616 15.0886 23.0523 15.0615L22.7919 14.278L21.9496 14.0368C21.9203 14.0282 21.9003 14.0026 21.9003 13.9739C21.9003 13.9452 21.9203 13.9196 21.9496 13.9111L22.7919 13.6691L23.0523 12.8864Z" fill="#E7E8F0"/>
<path d="M11.1833 13.2986C10.7741 13.7314 10.7155 14.2419 10.8804 14.6382C11.0461 15.0377 11.4507 15.3527 12.0479 15.3527H17.0099C17.4183 15.3527 17.7127 15.196 17.9108 14.9734C18.199 14.6507 18.2799 14.1651 18.1535 13.74C18.0086 13.2552 17.6102 12.8588 17.0099 12.8588H15.5265C15.4301 12.8588 15.33 12.8611 15.2282 12.865C15.6159 12.5818 16.0089 12.2654 16.4728 11.869C16.4797 11.8628 16.4867 11.8566 16.4936 11.8496C17.8507 10.5192 18.162 8.96782 17.742 7.75849C17.3151 6.52666 16.1252 5.61133 14.4014 5.61133C13.1383 5.61133 11.8837 6.13571 11.231 7.42028C11.2272 7.42726 11.2241 7.43347 11.221 7.44122C10.8457 8.29063 11.2017 8.90033 11.6942 9.16252C12.2028 9.43324 12.9064 9.33706 13.2932 8.7227C13.5475 8.31933 13.9814 8.05403 14.4014 8.05403C14.8768 8.05403 15.1812 8.22547 15.3022 8.5117C15.5049 8.99109 15.2514 9.66053 14.7081 10.0887C14.7004 10.0949 14.6927 10.1019 14.685 10.1081C13.4358 11.2492 12.3423 12.0544 11.1833 13.2986Z" fill="#E7E8F0"/>
</svg>
