<svg width="30" height="35" viewBox="0 0 30 35" fill="none" xmlns="http://www.w3.org/2000/svg">
<mask id="mask0_270_2201" style="mask-type:luminance" maskUnits="userSpaceOnUse" x="0" y="13" width="20" height="22">
<path d="M0.258057 13.0723H19.6128V34.1504H0.258057V13.0723Z" fill="white"/>
</mask>
<g mask="url(#mask0_270_2201)">
<path fill-rule="evenodd" clip-rule="evenodd" d="M7.99827 13.1836L19.4395 18.6007L11.7017 34.1096L8.21662 26.7715L0.259644 28.6925L7.99827 13.1836Z" fill="#F9A159"/>
</g>
<path fill-rule="evenodd" clip-rule="evenodd" d="M9.67361 14.1289L17.65 17.7552L11.8051 29.6696L9.54229 24.4144L3.68567 25.9608L9.67361 14.1289Z" fill="#F9A159"/>
<mask id="mask1_270_2201" style="mask-type:luminance" maskUnits="userSpaceOnUse" x="10" y="12" width="20" height="22">
<path d="M10.2634 12.8789H29.5V33.9995H10.2634V12.8789Z" fill="white"/>
</mask>
<g mask="url(#mask1_270_2201)">
<path fill-rule="evenodd" clip-rule="evenodd" d="M21.7008 12.9414L10.2798 18.3994L18.0767 33.8803L21.5338 26.5301L29.4978 28.4223L21.7008 12.9414Z" fill="#F9A159"/>
</g>
<path fill-rule="evenodd" clip-rule="evenodd" d="M20.0294 13.8945L12.0662 17.5496L17.9562 29.4428L20.1988 24.1801L26.0616 25.7045L20.0294 13.8945Z" fill="#F9A159"/>
<mask id="mask2_270_2201" style="mask-type:luminance" maskUnits="userSpaceOnUse" x="3" y="0" width="24" height="22">
<path d="M3.5 0H26.1774V21.9865H3.5V0Z" fill="white"/>
</mask>
<g mask="url(#mask2_270_2201)">
<path fill-rule="evenodd" clip-rule="evenodd" d="M14.8783 0C21.0613 0 26.0803 4.88882 26.0803 10.9115C26.0803 16.9334 21.0613 21.823 14.8783 21.823C8.69613 21.823 3.67639 16.9334 3.67639 10.9115C3.67639 4.88882 8.69613 0 14.8783 0Z" fill="#F9A159"/>
</g>
<path fill-rule="evenodd" clip-rule="evenodd" d="M14.8784 2.34961C19.6471 2.34961 23.5184 6.18634 23.5184 10.9117C23.5184 15.637 19.6471 19.4737 14.8784 19.4737C10.1104 19.4737 6.23914 15.637 6.23914 10.9117C6.23914 6.18634 10.1104 2.34961 14.8784 2.34961Z" fill="#FA6B25"/>
<path fill-rule="evenodd" clip-rule="evenodd" d="M7.67198 5.95975C7.68441 5.92342 7.72171 5.89844 7.76445 5.89844C7.80719 5.89844 7.84449 5.92342 7.85692 5.95975L8.21358 6.99821L9.3675 7.31838C9.40868 7.32974 9.43588 7.3638 9.43588 7.40164C9.43588 7.44025 9.40868 7.47431 9.3675 7.4849L8.21358 7.80583L7.85692 8.84354C7.84449 8.87987 7.80719 8.90561 7.76445 8.90561C7.72171 8.90561 7.68441 8.87987 7.67198 8.84354L7.31532 7.80583L6.1614 7.4849C6.12099 7.47431 6.09302 7.44025 6.09302 7.40164C6.09302 7.3638 6.12099 7.32974 6.1614 7.31838L7.31532 6.99821L7.67198 5.95975Z" fill="#FFCA96"/>
<path fill-rule="evenodd" clip-rule="evenodd" d="M21.8275 14.3109C21.8399 14.273 21.878 14.248 21.9215 14.248C21.9643 14.248 22.0023 14.273 22.0155 14.3109L22.3769 15.3637L23.5487 15.6892C23.5898 15.7005 23.6178 15.7354 23.6178 15.774C23.6178 15.8126 23.5898 15.8466 23.5487 15.8587L22.3769 16.1834L22.0155 17.237C22.0023 17.2741 21.9643 17.2991 21.9215 17.2991C21.878 17.2991 21.8399 17.2741 21.8275 17.237L21.4654 16.1834L20.2944 15.8587C20.2532 15.8466 20.2252 15.8126 20.2252 15.774C20.2252 15.7354 20.2532 15.7005 20.2944 15.6892L21.4654 15.3637L21.8275 14.3109Z" fill="#FFCA96"/>
<path fill-rule="evenodd" clip-rule="evenodd" d="M5.99894 8.09361C6.00748 8.06939 6.03313 8.05273 6.0611 8.05273C6.08985 8.05273 6.11472 8.06939 6.12326 8.09361L6.3626 8.79071L7.13731 9.00567C7.16451 9.01324 7.18316 9.03595 7.18316 9.06168C7.18316 9.08742 7.16451 9.11013 7.13731 9.11769L6.3626 9.33265L6.12326 10.029C6.11472 10.054 6.08985 10.0699 6.0611 10.0699C6.03313 10.0699 6.00748 10.054 5.99894 10.029L5.75961 9.33265L4.98567 9.11769C4.95847 9.11013 4.93982 9.08742 4.93982 9.06168C4.93982 9.03595 4.95847 9.01324 4.98567 9.00567L5.75961 8.79071L5.99894 8.09361Z" fill="#FFCA96"/>
<path fill-rule="evenodd" clip-rule="evenodd" d="M23.4996 12.5747C23.5082 12.5482 23.5361 12.5293 23.5672 12.5293C23.5991 12.5293 23.6263 12.5482 23.6356 12.5747L23.8982 13.3384L24.7476 13.5746C24.7771 13.5829 24.7973 13.6079 24.7973 13.6359C24.7973 13.6639 24.7771 13.6889 24.7476 13.6972L23.8982 13.9333L23.6356 14.6971C23.6263 14.7243 23.5991 14.7425 23.5672 14.7425C23.5361 14.7425 23.5082 14.7243 23.4996 14.6971L23.237 13.9333L22.3877 13.6972C22.3581 13.6889 22.3372 13.6639 22.3372 13.6359C22.3372 13.6079 22.3581 13.5829 22.3877 13.5746L23.237 13.3384L23.4996 12.5747Z" fill="#FFCA96"/>
<path d="M12.7476 9.89405C12.1928 10.3255 12.1454 11.1058 12.541 11.5993C12.7966 11.9172 13.2341 12.1367 13.8534 12.0278C14.2613 11.9869 14.8348 11.9165 15.308 12.0096C15.5093 12.0489 15.6934 12.1125 15.8022 12.2616C15.8706 12.3555 15.9025 12.4811 15.9025 12.6416C15.9025 12.9126 15.8294 13.1154 15.6934 13.2554C15.4704 13.4863 15.1138 13.5537 14.7602 13.5537C14.3142 13.5537 13.893 13.4008 13.635 13.073C13.635 13.0723 13.6343 13.0723 13.6343 13.0715C13.3304 12.6878 12.9388 12.5402 12.5713 12.5432C12.0413 12.5485 11.5541 12.8838 11.3847 13.3478C11.2705 13.6596 11.2884 14.0343 11.5487 14.412C12.2216 15.4338 13.3716 15.9122 14.5411 15.9122C15.8512 15.9122 16.8124 15.5307 17.4511 14.9502C18.1124 14.3499 18.4395 13.5294 18.4395 12.6416C18.4395 11.3201 17.5063 10.1923 16.1838 9.87664L17.6368 8.55434C17.6399 8.55131 17.6438 8.54752 17.6469 8.5445C18.0712 8.13123 18.1396 7.60064 17.9694 7.17526C17.7961 6.74156 17.3726 6.40625 16.7844 6.40625H12.8386C11.2907 6.40625 11.1928 8.78973 12.8386 8.78973H13.9746L12.7476 9.89405Z" fill="#FFCA96"/>
</svg>
